<svg width="33" height="33" viewBox="0 0 33 33" fill="none" xmlns="http://www.w3.org/2000/svg">
<path d="M0 10.5C0 4.97715 4.47715 0.5 10 0.5H23C28.5228 0.5 33 4.97715 33 10.5V22.5C33 28.0228 28.5228 32.5 23 32.5H10C4.47715 32.5 0 28.0228 0 22.5V10.5Z" fill="url(#paint0_linear_2001_1016)"/>
<path d="M17.7885 11.6611C17.7433 11.6611 17.6981 11.6611 17.6529 11.6158C17.2912 11.3898 16.9296 11.209 16.5679 10.9829C16.5227 10.9377 16.5227 10.9829 16.4775 10.9829C16.1158 11.209 15.7541 11.435 15.3924 11.6158C15.2568 11.7063 15.0759 11.6611 15.0307 11.4802C15.0307 11.435 15.0307 11.3898 15.0307 11.3446C15.1212 10.9377 15.2116 10.5308 15.302 10.1239C15.302 10.0787 15.302 10.0335 15.2568 10.0335C14.9403 9.76223 14.6238 9.49097 14.3074 9.21971C14.217 9.1745 14.1717 9.08408 14.217 8.94845C14.2622 8.85803 14.3074 8.76761 14.443 8.76761C14.7595 8.7224 15.0759 8.7224 15.3924 8.67719C15.4828 8.67719 15.5733 8.67719 15.7089 8.63198C15.7541 8.63198 15.7541 8.63198 15.7541 8.58677C15.9349 8.17988 16.0706 7.8182 16.2514 7.41131C16.2966 7.32089 16.387 7.23047 16.4775 7.23047C16.5679 7.23047 16.6583 7.27568 16.7035 7.41131C16.8843 7.77299 17.02 8.17988 17.2008 8.54156C17.2008 8.58677 17.246 8.58677 17.2912 8.58677C17.6981 8.63198 18.105 8.67719 18.5119 8.67719C18.6475 8.67719 18.6928 8.7224 18.738 8.85803C18.7832 8.94845 18.738 9.03887 18.6475 9.12929C18.3763 9.40055 18.0598 9.6266 17.7885 9.89786C17.6981 9.98828 17.6529 10.0335 17.6981 10.1691C17.7886 10.5308 17.879 10.9377 17.9694 11.2994C18.105 11.5254 17.9694 11.6611 17.7885 11.6611Z" fill="#F8F8F8"/>
<path d="M23.0329 14.871C22.9877 14.871 22.9425 14.871 22.8973 14.8258C22.5356 14.5998 22.1739 14.4189 21.8123 14.1929C21.7671 14.1477 21.7671 14.1929 21.7218 14.1929C21.3602 14.4189 20.9985 14.645 20.6368 14.8258C20.5012 14.9162 20.3203 14.871 20.2751 14.6902C20.2751 14.645 20.2751 14.5998 20.2751 14.5545C20.3655 14.1477 20.456 13.7408 20.5464 13.3339C20.5464 13.2887 20.5464 13.2435 20.5012 13.2435C20.1847 12.9722 19.8682 12.7009 19.5518 12.4297C19.4613 12.3845 19.4161 12.294 19.4613 12.1584C19.5065 12.068 19.5518 11.9776 19.6874 11.9776C20.0039 11.9324 20.3203 11.9324 20.6368 11.8872C20.7272 11.8872 20.8176 11.8872 20.9533 11.8419C20.9985 11.8419 20.9985 11.8419 20.9985 11.7967C21.1793 11.3898 21.315 11.0282 21.4958 10.6213C21.541 10.5308 21.6314 10.4404 21.7218 10.4404C21.8123 10.4404 21.9027 10.4856 21.9479 10.6213C22.1287 10.983 22.2644 11.3898 22.4452 11.7515C22.4452 11.7967 22.4904 11.7967 22.5356 11.7967C22.9425 11.8419 23.3494 11.8872 23.7563 11.8872C23.8919 11.8872 23.9371 11.9324 23.9823 12.068C24.0276 12.1584 23.9823 12.2488 23.8919 12.3393C23.6207 12.6105 23.3042 12.8366 23.0329 13.1078C22.9425 13.1982 22.8973 13.2435 22.9425 13.3791C23.0329 13.7408 23.1234 14.1477 23.2138 14.5093C23.3042 14.7354 23.2138 14.871 23.0329 14.871Z" fill="#F8F8F8"/>
<path d="M12.5893 14.871C12.5441 14.871 12.4989 14.871 12.4537 14.8258C12.092 14.5998 11.7303 14.4189 11.3687 14.1929C11.3234 14.1477 11.3234 14.1929 11.2782 14.1929C10.9166 14.4189 10.5549 14.645 10.1932 14.8258C10.0576 14.9162 9.87673 14.871 9.83152 14.6902C9.83152 14.645 9.83152 14.5998 9.83152 14.5545C9.92194 14.1477 10.0124 13.7408 10.1028 13.3339C10.1028 13.2887 10.1028 13.2435 10.0576 13.2435C9.7411 12.9722 9.42463 12.7009 9.10816 12.4297C9.01774 12.3845 8.97253 12.294 9.01774 12.1584C9.06295 12.068 9.10816 11.9776 9.24379 11.9776C9.56026 11.9324 9.87673 11.9324 10.1932 11.8872C10.2836 11.8872 10.374 11.8872 10.5097 11.8419C10.5549 11.8419 10.5549 11.8419 10.5549 11.7967C10.7357 11.3898 10.8713 11.0282 11.0522 10.6213C11.0974 10.5308 11.1878 10.4404 11.2782 10.4404C11.3687 10.4404 11.4591 10.4856 11.5043 10.6213C11.6851 10.983 11.8208 11.3898 12.0016 11.7515C12.0016 11.7967 12.0468 11.7967 12.092 11.7967C12.4989 11.8419 12.9058 11.8872 13.3127 11.8872C13.4483 11.8872 13.4935 11.9324 13.5387 12.068C13.584 12.1584 13.5387 12.2488 13.4483 12.3393C13.1771 12.6105 12.8606 12.8366 12.5893 13.1078C12.4989 13.1982 12.4537 13.2435 12.4989 13.3791C12.5893 13.7408 12.6798 14.1477 12.7702 14.5093C12.8606 14.7354 12.7702 14.871 12.5893 14.871Z" fill="#F8F8F8"/>
<path d="M17.9128 24V20.9492H15.0872V24H12.5V16H15.0872V18.9153H17.9128V16H20.5V24H17.9128Z" fill="#F8F8F8"/>
<defs>
<linearGradient id="paint0_linear_2001_1016" x1="16.2537" y1="-11.2895" x2="20.4094" y2="32.1366" gradientUnits="userSpaceOnUse">
<stop offset="0.375" stop-color="#FBC391"/>
<stop offset="1" stop-color="#B57C49"/>
</linearGradient>
</defs>
</svg>
