<svg width="33" height="33" viewBox="0 0 33 33" fill="none" xmlns="http://www.w3.org/2000/svg">
<path d="M0 10.5C0 4.97715 4.47715 0.5 10 0.5H23C28.5228 0.5 33 4.97715 33 10.5V22.5C33 28.0228 28.5228 32.5 23 32.5H10C4.47715 32.5 0 28.0228 0 22.5V10.5Z" fill="#1DB779"/>
<path d="M0 10.5C0 4.97715 4.47715 0.5 10 0.5H23C28.5228 0.5 33 4.97715 33 10.5V22.5C33 28.0228 28.5228 32.5 23 32.5H10C4.47715 32.5 0 28.0228 0 22.5V10.5Z" fill="url(#paint0_linear_2001_1010)"/>
<path d="M22.3974 8C20.5218 8.1563 18.9589 9.87555 18.9589 11.7511C18.9589 13.9392 18.9589 16.1274 18.9589 18.3155C18.9589 18.4718 19.1152 18.6281 19.1152 18.6281C19.7403 18.9407 20.2092 19.097 20.8344 19.2533C20.6781 20.0348 20.6781 20.8163 20.5218 21.4415C20.3655 22.6918 20.2092 23.9422 20.0529 25.3489C20.0529 26.1303 20.5218 26.7555 21.147 26.7555C21.7722 26.9118 22.3974 26.2866 22.5537 25.6615C22.5537 25.5052 22.5537 25.3489 22.5537 25.1926C22.5537 19.7222 22.5537 14.0955 22.5537 8.62518C22.5537 8.46889 22.5537 8.31259 22.5537 8.1563C22.71 8 22.5537 8 22.3974 8ZM21.4596 25.8177C21.147 25.8177 20.8344 25.5052 20.8344 25.1926C20.8344 24.88 21.147 24.5674 21.4596 24.5674C21.7722 24.5674 22.0848 24.88 22.0848 25.1926C22.0848 25.5052 21.7722 25.8177 21.4596 25.8177Z" fill="#F8F8F8"/>
<path d="M17.0834 8.46889C17.0834 8.1563 16.9271 8 16.4582 8C16.1456 8 15.9893 8.1563 15.9893 8.46889C15.9893 8.62518 15.9893 8.78148 15.9893 8.93778C15.9893 9.87555 15.9893 10.9696 15.9893 11.9074C15.9893 12.3763 15.6767 12.5326 15.3641 12.5326C15.0515 12.5326 14.7389 12.22 14.7389 11.9074C14.7389 11.5948 14.7389 11.2822 14.7389 11.1259C14.7389 10.3444 14.7389 9.56296 14.7389 8.78148C14.7389 8.31259 14.5826 8 14.27 8C13.8012 8 13.6449 8.31259 13.6449 8.78148C13.6449 9.09407 13.6449 9.25037 13.6449 9.56296C13.6449 10.3444 13.6449 11.2822 13.6449 12.0637C13.6449 12.5326 13.3323 12.6889 13.0197 12.6889C12.7071 12.6889 12.3945 12.3763 12.3945 12.0637C12.3945 11.9074 12.3945 11.9074 12.3945 11.7511C12.3945 10.8133 12.3945 9.71926 12.3945 8.78148C12.3945 8.31259 12.2382 8 11.9256 8C11.613 8 11.3004 8.31259 11.3004 8.62518C11.3004 10.3444 11.3004 11.9074 11.3004 13.6267C11.3004 14.2518 11.613 14.7207 12.2382 15.0333C12.5508 15.0333 12.8634 15.1896 13.0197 15.3459C13.3323 15.3459 13.4886 15.5022 13.4886 15.8148C13.3323 17.3778 13.3323 18.9407 13.176 20.8163C13.176 22.2229 13.0197 23.7859 13.0197 25.5052C13.0197 26.1303 13.3323 26.5992 13.8012 26.7555C14.5826 27.0681 15.5204 26.4429 15.5204 25.5052C15.3641 22.3792 15.2078 19.5659 15.0515 16.5963C15.0515 15.5022 15.0515 15.5022 15.9893 15.1896C15.9893 15.1896 15.9893 15.1896 16.1456 15.1896C16.7708 14.7207 17.0834 14.2518 17.0834 13.3141C17.0834 11.7511 17.0834 10.3444 17.0834 8.78148C17.0834 8.78148 17.0834 8.62518 17.0834 8.46889Z" fill="#F8F8F8"/>
<defs>
<linearGradient id="paint0_linear_2001_1010" x1="16.2537" y1="-11.2895" x2="20.4094" y2="32.1366" gradientUnits="userSpaceOnUse">
<stop offset="0.375" stop-color="#1DB779"/>
<stop offset="1" stop-color="#15714C"/>
</linearGradient>
</defs>
</svg>
