<svg width="33" height="33" viewBox="0 0 33 33" fill="none" xmlns="http://www.w3.org/2000/svg">
<rect y="0.5" width="33" height="32" rx="10" fill="#FB4949"/>
<rect y="0.5" width="33" height="32" rx="10" fill="url(#paint0_linear_2001_1027)" fill-opacity="0.2" style="mix-blend-mode:plus-darker"/>
<path d="M16.5071 15.1519C15.0693 15.1519 13.8711 16.35 13.8711 17.7878C13.8711 19.2256 15.0693 20.4238 16.5071 20.4238C17.9449 20.4238 19.143 19.2256 19.143 17.7878C19.143 16.35 17.9449 15.1519 16.5071 15.1519Z" fill="#F8F8F8"/>
<path d="M22.9771 12.9951C20.8204 12.9951 18.6637 12.9951 16.507 12.9951C14.3503 12.9951 12.1936 12.9951 10.0369 12.9951C9.07839 12.9951 8.59912 13.4744 8.59912 14.4329C8.59912 16.5896 8.59912 18.8661 8.59912 21.0228C8.59912 21.9813 9.07839 22.4606 10.0369 22.4606C14.3503 22.4606 18.6637 22.4606 22.9771 22.4606C23.9356 22.4606 24.4149 21.9813 24.4149 21.0228C24.4149 18.8661 24.4149 16.5896 24.4149 14.4329C24.4149 13.4744 23.9356 12.9951 22.9771 12.9951ZM16.507 21.9813C14.2305 21.9813 12.3134 20.1841 12.3134 17.7878C12.3134 15.5113 14.1107 13.5942 16.507 13.5942C18.7835 13.5942 20.7006 15.5113 20.7006 17.7878C20.7006 20.0643 18.7835 21.9813 16.507 21.9813ZM22.378 16.1103C21.7789 16.1103 21.2997 15.6311 21.2997 15.032C21.2997 14.4329 21.7789 13.9536 22.378 13.9536C22.9771 13.9536 23.4564 14.4329 23.4564 15.032C23.4564 15.6311 22.9771 16.1103 22.378 16.1103Z" fill="#F8F8F8"/>
<path d="M22.3779 14.5527C22.1383 14.5527 21.8987 14.7924 21.8987 15.032C21.8987 15.2716 22.1383 15.5113 22.3779 15.5113C22.6176 15.5113 22.8572 15.2716 22.8572 15.032C22.8572 14.7924 22.6176 14.5527 22.3779 14.5527Z" fill="#F8F8F8"/>
<path d="M25.0139 14.4332C25.0139 13.1152 24.295 12.3963 22.9771 12.3963C21.7789 12.3963 20.7005 12.3963 19.5024 12.3963C19.1429 12.3963 19.0231 12.2765 19.0231 12.0369C19.0231 11.6774 18.9033 11.4378 18.9033 11.0783C18.7835 10.4793 18.3042 10.1198 17.8249 10C16.9862 10 16.1475 10 15.3088 10C14.7097 10.1198 14.2305 10.4793 14.1106 11.0783C14.1106 11.318 13.9908 11.6774 13.9908 12.0369C13.9908 12.2765 13.871 12.3963 13.6314 12.3963C12.4332 12.3963 11.235 12.3963 10.0369 12.3963C8.7189 12.3963 8 13.1152 8 14.4332C8 16.7097 8 18.8664 8 21.1429C8 22.3411 8.7189 23.1798 10.0369 23.1798C12.1936 23.1798 14.3503 23.1798 16.507 23.1798C18.6637 23.1798 20.8204 23.1798 22.9771 23.1798C24.295 23.1798 25.0139 22.4609 25.0139 21.1429C25.0139 18.8664 25.0139 16.5899 25.0139 14.4332ZM14.5899 12.0369C14.7097 11.6774 14.7097 11.4378 14.7097 11.0783C14.8295 10.7189 15.0692 10.4793 15.3088 10.4793C16.0277 10.4793 16.8664 10.4793 17.5853 10.4793C17.9448 10.4793 18.1844 10.7189 18.1844 11.0783C18.3042 11.4378 18.3042 11.6774 18.3042 12.0369C18.3042 12.2765 18.3042 12.2765 18.0646 12.2765C17.4655 12.2765 16.8664 12.2765 16.3871 12.2765C15.7881 12.2765 15.3088 12.2765 14.7097 12.2765C14.5899 12.3963 14.4701 12.3963 14.5899 12.0369ZM24.4148 21.0231C24.4148 21.9816 23.9356 22.4609 22.9771 22.4609C18.6637 22.4609 14.3503 22.4609 10.0369 22.4609C9.07835 22.4609 8.59908 21.9816 8.59908 21.0231C8.59908 18.8664 8.59908 16.5899 8.59908 14.4332C8.59908 13.4747 9.07835 12.9954 10.0369 12.9954C12.1936 12.9954 14.3503 12.9954 16.507 12.9954C18.6637 12.9954 20.8204 12.9954 22.9771 12.9954C23.9356 12.9954 24.4148 13.4747 24.4148 14.4332C24.4148 16.7097 24.4148 18.8664 24.4148 21.0231Z" fill="#F8F8F8"/>
<path d="M10.3963 11.7973C10.6359 11.7973 10.7558 11.7973 10.9954 11.7973C11.235 11.7973 11.4747 11.7973 11.5945 11.7973C11.7143 11.7973 11.8341 11.6775 11.8341 11.5577C11.9539 11.3181 11.8341 11.1982 11.5945 11.1982C11.1152 11.1982 10.7558 11.1982 10.2765 11.1982C10.1567 11.1982 10.0369 11.3181 10.0369 11.5577C10.0369 11.6775 10.1567 11.7973 10.3963 11.7973Z" fill="#F8F8F8"/>
<defs>
<linearGradient id="paint0_linear_2001_1027" x1="16.2537" y1="-11.2895" x2="20.4094" y2="32.1366" gradientUnits="userSpaceOnUse">
<stop offset="0.149038" stop-color="white"/>
<stop offset="0.672967"/>
</linearGradient>
</defs>
</svg>
