<svg width="30" height="31" viewBox="0 0 30 31" fill="none" xmlns="http://www.w3.org/2000/svg">
<path d="M23.7184 15.2232C23.7184 16.5301 23.7184 17.9139 23.7184 19.2209C23.7184 19.6821 23.5647 19.9896 23.1034 20.2203C20.797 21.5272 18.5676 22.8342 16.2612 24.218C15.7999 24.5255 15.4155 24.5255 14.8774 24.218C12.571 22.911 10.2647 21.5272 7.95832 20.2203C7.57392 19.9896 7.42017 19.6821 7.42017 19.2209C7.42017 16.5301 7.42017 13.8394 7.42017 11.1486C7.42017 10.6873 7.57392 10.3798 7.95832 10.1492C10.2647 8.84224 12.571 7.45843 14.9543 6.15149C15.3387 5.92086 15.7231 5.92086 16.1843 6.15149C18.4907 7.53531 20.8739 8.84224 23.1803 10.1492C23.5647 10.3798 23.7184 10.6873 23.7184 11.0717C23.7184 12.5324 23.7184 13.8394 23.7184 15.2232ZM9.8034 11.3024C9.88028 11.3792 9.88028 11.3792 9.95716 11.3792C11.8022 12.4555 13.6473 13.5318 15.4924 14.5313C15.6462 14.6081 15.7231 14.6081 15.8768 14.5313C17.7219 13.455 19.4901 12.4555 21.3352 11.3792C21.4121 11.3792 21.4121 11.3024 21.489 11.2255C21.4121 11.2255 21.4121 11.1486 21.4121 11.1486C19.567 10.0723 17.7219 8.996 15.8768 7.99658C15.7231 7.9197 15.6462 7.9197 15.4924 7.99658C14.4161 8.61161 13.4167 9.22664 12.3404 9.76479C11.4947 10.3798 10.6491 10.8411 9.8034 11.3024ZM21.8733 13.2243C21.7965 13.3012 21.7196 13.3012 21.6427 13.3012C19.9514 14.2237 18.3369 15.2232 16.6456 16.1457C16.4918 16.2226 16.4918 16.2995 16.4918 16.4532C16.4918 18.1446 16.4918 19.8359 16.4918 21.6041C16.4918 21.681 16.4918 21.7579 16.4918 21.8347C16.5687 21.7579 16.7225 21.7579 16.7994 21.681C18.4138 20.7584 20.0283 19.8359 21.6427 18.9133C21.7965 18.8365 21.8733 18.6827 21.8733 18.4521C21.8733 16.7607 21.8733 15.1463 21.8733 13.455C21.8733 13.455 21.8733 13.3781 21.8733 13.2243ZM14.7236 21.9116C14.7236 21.8347 14.7236 21.7579 14.7236 21.681C14.7236 19.9896 14.7236 18.2214 14.7236 16.5301C14.7236 16.3763 14.6468 16.2995 14.493 16.2226C12.8785 15.3 11.2641 14.3775 9.64965 13.3781C9.57277 13.3012 9.49589 13.3012 9.41901 13.2243C9.41901 13.3781 9.41901 13.455 9.41901 13.5318C9.41901 15.2232 9.41901 16.8376 9.41901 18.5289C9.41901 18.7596 9.49589 18.8365 9.64965 18.9902C10.8797 19.6821 12.0329 20.374 13.1861 21.0659C13.6473 21.2966 14.1855 21.6041 14.7236 21.9116Z" fill="#F8F8F8"/>
<path d="M3.42197 9.9185C3.42197 9.38035 3.42197 8.8422 3.42197 8.30405C3.42197 7.99653 3.42197 7.7659 3.42197 7.45838C3.42197 7.61214 3.42197 7.30462 3.42197 7.30462C3.42197 7.22775 3.49884 7.07399 3.49884 6.99711C3.49884 6.84335 3.57572 6.76647 3.57572 6.61272C3.57572 6.53584 3.6526 6.45896 3.6526 6.45896C3.57572 6.61272 3.6526 6.45896 3.6526 6.38208C3.88324 6.22832 3.96012 5.99769 4.11387 5.84393C4.19075 5.76705 4.26763 5.69017 4.26763 5.61329C4.34451 5.45954 4.19075 5.69017 4.26763 5.61329C4.34451 5.53642 4.34451 5.45954 4.42139 5.45954C4.57514 5.30578 4.7289 5.15202 4.88266 4.99827L4.95954 4.92139C5.19017 4.69075 5.34393 4.61387 5.42081 4.53699C5.65145 4.46012 5.8052 4.30636 6.03584 4.22948C5.88208 4.30636 6.1896 4.1526 6.26647 4.1526C6.42023 4.07572 6.49711 4.07572 6.65087 4.07572C6.80462 4.07572 6.8815 3.99884 7.03526 3.99884C7.03526 3.99884 7.18902 3.99884 7.11214 3.99884C7.03526 3.99884 7.18902 3.99884 7.18902 3.99884C7.34277 3.99884 7.49653 3.99884 7.65029 3.99884C8.26532 3.99884 8.80347 3.99884 9.4185 3.99884C9.95665 3.99884 10.4179 3.53757 10.4179 2.99942C10.4179 2.46127 9.95665 2 9.4185 2C8.80347 2 8.26532 2 7.65029 2C6.65087 2 5.65145 2.23064 4.7289 2.69191C2.73006 3.76821 1.5 5.92081 1.5 8.15029C1.5 8.76532 1.5 9.38035 1.5 9.99538C1.5 10.5335 1.96127 10.9948 2.49942 10.9948C2.96069 10.9179 3.42197 10.4566 3.42197 9.9185Z" fill="#F8F8F8"/>
<path d="M29.0232 9.9185C29.0232 9.38035 29.0232 8.76532 29.0232 8.22717C29.0232 7.22775 28.7925 6.3052 28.4081 5.38266C27.4087 3.30694 25.2561 2 22.9498 2C22.3347 2 21.7197 2 21.1816 2C20.6434 2 20.1821 2.46127 20.1821 2.99942C20.1821 3.53757 20.6434 3.99884 21.1816 3.99884C21.7197 3.99884 22.2579 3.99884 22.796 3.99884C22.8729 3.99884 22.9498 3.99884 23.0266 3.99884C23.1035 3.99884 23.2573 3.99884 23.3342 3.99884C23.411 3.99884 23.4879 3.99884 23.5648 3.99884C23.7185 3.99884 23.3342 3.92197 23.6417 3.99884C23.8723 4.07572 24.1029 4.07572 24.2567 4.1526C24.4105 4.1526 24.4873 4.22948 24.6411 4.30636C24.5642 4.30636 24.4873 4.22948 24.6411 4.30636C24.6411 4.30636 24.718 4.30636 24.7948 4.38324C25.0255 4.46012 25.1792 4.61387 25.4099 4.76763C25.4868 4.76763 25.4868 4.84451 25.5636 4.84451C25.6405 4.92139 25.7943 4.99827 25.8711 5.15202C26.0249 5.30578 26.2555 5.53642 26.2555 5.61329C26.3324 5.69017 26.4862 5.99769 26.6399 6.15145C26.7168 6.22832 26.7168 6.3052 26.7937 6.45896C26.7937 6.53584 26.8706 6.53584 26.8706 6.61272C26.9474 6.84335 27.0243 7.07399 27.1012 7.30462C27.1012 7.3815 27.1781 7.68902 27.1781 7.53526C27.1781 7.61214 27.1781 7.7659 27.1781 7.84277C27.1781 7.91965 27.1781 8.07341 27.1781 8.15029C27.1781 8.76532 27.1781 9.30347 27.1781 9.9185C27.1781 10.4566 27.6394 10.9179 28.1775 10.9179C28.5619 10.9179 29.0232 10.4566 29.0232 9.9185Z" fill="#F8F8F8"/>
<path d="M1.5 20.6816C1.5 21.2197 1.5 21.8347 1.5 22.3729C1.5 23.3723 1.73064 24.2949 2.11503 25.2174C3.11445 27.2931 5.26705 28.6001 7.57341 28.6001C8.18844 28.6001 8.80347 28.6001 9.34162 28.6001C9.87977 28.6001 10.341 28.1388 10.341 27.6006C10.341 27.0625 9.87977 26.6012 9.34162 26.6012C8.80347 26.6012 8.26532 26.6012 7.72717 26.6012C7.65029 26.6012 7.57341 26.6012 7.49653 26.6012C7.41965 26.6012 7.2659 26.6012 7.18902 26.6012C7.11214 26.6012 7.03526 26.6012 6.95838 26.6012C6.80462 26.6012 7.18902 26.6781 6.8815 26.6012C6.65087 26.5243 6.42023 26.5243 6.26647 26.4475C6.11272 26.4475 6.03584 26.3706 5.88208 26.2937C6.03584 26.3706 5.95896 26.2937 5.88208 26.2937C5.8052 26.2937 5.72832 26.2168 5.65145 26.2168C5.42081 26.1399 5.26705 25.9862 5.03642 25.8324C4.95954 25.8324 4.95954 25.7556 4.88266 25.7556C4.80578 25.6787 4.65202 25.6018 4.57514 25.448C4.57514 25.3712 4.34451 25.1405 4.34451 25.0636C4.26763 24.9868 4.11387 24.6793 3.96012 24.5255C3.88324 24.4486 3.88324 24.2949 3.80636 24.218C3.80636 24.1411 3.72948 24.1411 3.72948 24.0642C3.6526 23.8336 3.57572 23.603 3.49884 23.3723C3.49884 23.2954 3.42197 22.9879 3.42197 23.1417C3.42197 23.0648 3.42197 22.911 3.42197 22.8342C3.42197 22.7573 3.42197 22.6035 3.42197 22.5267C3.42197 21.9116 3.42197 21.3735 3.42197 20.7584C3.42197 20.2203 2.96069 19.759 2.42254 19.759C1.96127 19.6821 1.5 20.1434 1.5 20.6816Z" fill="#F8F8F8"/>
<path d="M27.101 20.6815C27.101 21.2197 27.101 21.7578 27.101 22.296C27.101 22.6035 27.101 22.8341 27.101 23.1416C27.101 22.9879 27.101 23.2954 27.101 23.2954C27.101 23.3723 27.0241 23.526 27.0241 23.6029C27.0241 23.7567 26.9472 23.8335 26.9472 23.9873C26.9472 24.0642 26.8703 24.1411 26.8703 24.1411C26.9472 23.9873 26.8703 24.1411 26.8703 24.2179C26.7935 24.4486 26.6397 24.6023 26.5628 24.833C26.3322 24.9098 26.3322 24.9867 26.2553 25.0636C26.3322 24.9867 26.1784 25.2174 26.2553 25.0636C26.1784 25.1405 26.1784 25.2174 26.1016 25.2174C25.9478 25.3711 25.794 25.5249 25.6403 25.6786L25.5634 25.7555C25.4865 25.8324 25.3328 25.9093 25.2559 25.9862C25.0253 26.1399 24.8715 26.2168 24.6409 26.2937C24.7946 26.2168 24.4871 26.3705 24.4102 26.3705C24.2565 26.4474 24.1796 26.4474 24.0258 26.4474C23.8721 26.4474 23.7952 26.5243 23.6414 26.5243C23.6414 26.5243 23.4877 26.5243 23.5646 26.5243C23.6414 26.5243 23.4877 26.5243 23.4877 26.5243C23.3339 26.5243 23.1802 26.5243 23.0264 26.5243C22.4114 26.5243 21.8732 26.5243 21.2582 26.5243C20.7201 26.5243 20.2588 26.9856 20.2588 27.5237C20.2588 28.0619 20.7201 28.5231 21.2582 28.5231C21.7964 28.5231 22.4114 28.5231 22.9495 28.5231C23.949 28.5231 24.9484 28.2925 25.8709 27.8312C27.8698 26.7549 29.0998 24.6792 29.0998 22.4497C29.0998 21.8347 29.0998 21.2197 29.0998 20.6046C29.0998 20.0665 28.6386 19.6052 28.1004 19.6052C27.5623 19.6821 27.101 20.1434 27.101 20.6815Z" fill="#F8F8F8"/>
</svg>
