<svg width="31" height="31" viewBox="0 0 31 31" fill="none" xmlns="http://www.w3.org/2000/svg">
<path d="M11.9957 7.4845C11.4702 7.99667 11.0497 8.4064 10.5241 8.91857C9.89346 9.53317 9.15767 10.2502 8.52699 10.9672C8.42187 10.8648 8.42187 10.7624 8.31676 10.7624C7.89631 10.3526 7.58097 10.0453 7.16051 9.6356C6.84517 9.3283 6.52983 9.22587 6.10938 9.3283C5.37358 9.53317 5.16335 10.4551 5.68892 11.0697C6.3196 11.6843 7.0554 12.4013 7.68608 13.0159C8.21165 13.5281 8.84233 13.5281 9.26278 13.0159C9.78835 12.5037 10.3139 11.9916 10.8395 11.4794C11.6804 10.6599 12.5213 9.84047 13.3622 9.021C13.6776 8.7137 13.7827 8.4064 13.6776 7.99667C13.5724 7.1772 12.6264 6.8699 11.9957 7.4845Z" fill="#F8F8F8"/>
<path d="M23.6509 14.7644C23.191 15.2766 22.8231 15.6863 22.3632 16.1985C21.8114 16.8131 21.1676 17.5301 20.6157 18.2471C20.5237 18.1447 20.5237 18.0423 20.4318 18.0423C20.0639 17.6325 19.7879 17.3252 19.42 16.9155C19.1441 16.6082 18.8682 16.5058 18.5003 16.6082C17.8565 16.8131 17.6725 17.735 18.1324 18.3496C18.6843 18.9642 19.3281 19.6812 19.8799 20.2958C20.3398 20.808 20.8916 20.808 21.2595 20.2958C21.7194 19.7836 22.1793 19.2715 22.6392 18.7593C23.3749 17.9398 24.1107 17.1204 24.8465 16.3009C25.1225 15.9936 25.2144 15.6863 25.1225 15.2766C25.0305 14.4571 24.2027 14.1498 23.6509 14.7644Z" fill="#F8F8F8"/>
<path d="M28.1077 8.6663C28.0446 6.39978 26.7193 4.32214 24.5735 3.44071C23.5006 3 22.3646 3 21.1655 3C19.6508 3 18.1361 3 16.5583 3C13.6552 3 10.7521 3 7.84897 3C5.82941 3 3.93607 3.94438 2.86318 5.70723C2.16895 6.90345 2.04273 8.16263 2.04273 9.54772C2.04273 12.8216 2.04273 16.0954 2.04273 19.3064C2.04273 22.1395 1.53784 25.5393 3.99918 27.554C6.27119 29.4427 9.55298 28.9391 12.3299 28.9391C15.4854 28.9391 18.7041 28.9391 21.8597 28.9391C22.049 28.9391 22.3015 28.9391 22.4908 28.9391C25.1415 28.8761 27.4766 27.0503 27.9815 24.469C28.0446 24.2171 28.0446 23.9024 28.1077 23.6505C28.1708 23.0209 27.6659 22.5173 27.0979 22.5173C26.5299 22.5173 26.0881 22.958 26.0881 23.4616C26.025 24.2171 25.8357 24.9097 25.3308 25.6022C24.6366 26.4207 23.6268 26.9244 22.5539 26.9244C20.6606 26.9244 18.8303 26.9244 16.937 26.9244C17.0001 20.3137 17.0632 13.703 17.1263 7.15529C17.1263 6.46274 17.1263 5.77019 17.1263 5.07764C18.7672 5.07764 20.345 5.07764 21.9859 5.07764C23.3113 5.07764 24.5104 5.32948 25.3939 6.46274C26.1513 7.40712 26.1513 8.41446 26.1513 9.54772C26.1513 12.5698 26.1513 15.5918 26.1513 18.5508V19.6211C26.1513 20.1878 26.593 20.6285 27.161 20.6285C27.729 20.6285 28.1708 20.1878 28.1708 19.6211V11.4995C28.1077 10.5551 28.1077 9.61068 28.1077 8.6663ZM7.84897 26.9244C6.14496 26.9244 4.63029 25.8541 4.18851 24.1542C3.99918 23.3987 4.1254 22.5173 4.1254 21.7617C4.1254 19.873 4.1254 18.0472 4.1254 16.1584C7.53341 16.5362 10.8783 16.9139 14.2863 17.3546C14.4757 17.3546 14.6019 17.4176 14.7912 17.4176C14.7912 19.873 14.7281 22.2654 14.7281 24.7208C14.7281 25.4763 14.7281 26.2318 14.7281 26.9873C12.4561 26.9244 10.121 26.9244 7.84897 26.9244ZM14.8543 15.214C11.7619 14.8363 8.66942 14.5215 5.57696 14.1437C5.07207 14.0808 4.63029 14.0178 4.1254 13.9548C4.1254 13.3882 4.1254 12.8216 4.1254 12.255C4.1254 9.86252 3.5574 6.65162 6.20808 5.39244C7.09164 5.01468 8.0383 5.07764 8.92186 5.07764C10.3103 5.07764 11.7619 5.07764 13.1503 5.07764C13.7183 5.07764 14.3494 5.07764 14.9174 5.07764C14.9174 8.41446 14.8543 11.8142 14.8543 15.214Z" fill="#F8F8F8"/>
<path d="M11.533 19.328C11.429 18.808 11.013 18.6 10.493 18.6C10.389 18.6 10.285 18.6 10.181 18.704C9.97297 18.808 9.86897 18.808 9.66097 19.016C9.24497 19.432 8.82897 19.848 8.41297 20.264C7.99697 19.848 7.58097 19.432 7.16497 19.016C6.85297 18.704 6.54097 18.6 6.12497 18.704C5.60497 18.808 5.39697 19.224 5.39697 19.744C5.39697 19.848 5.39697 19.952 5.50097 20.056C5.60497 20.264 5.60497 20.368 5.81297 20.576C6.22897 20.992 6.64497 21.408 7.06097 21.824C6.64497 22.24 6.22897 22.656 5.81297 23.072C5.50097 23.384 5.39697 23.696 5.50097 24.112C5.60497 24.632 6.02097 24.84 6.54097 24.84C6.64497 24.84 6.74897 24.84 6.85297 24.736C7.06097 24.632 7.16497 24.632 7.37297 24.424C7.78897 24.008 8.20497 23.592 8.62097 23.176C9.03697 23.592 9.45297 24.008 9.86897 24.424C10.181 24.736 10.493 24.84 10.909 24.736C11.429 24.632 11.637 24.216 11.637 23.696C11.637 23.592 11.637 23.488 11.533 23.384C11.429 23.176 11.429 23.072 11.221 22.864C10.805 22.448 10.389 22.032 9.97297 21.616C10.389 21.2 10.805 20.784 11.221 20.368C11.533 20.056 11.637 19.744 11.533 19.328Z" fill="#F8F8F8"/>
</svg>
