<svg width="30" height="31" viewBox="0 0 30 31" fill="none" xmlns="http://www.w3.org/2000/svg">
<path d="M27.5 4.25C28.1904 4.25 28.75 3.69036 28.75 3C28.75 2.30964 28.1904 1.75 27.5 1.75C26.8096 1.75 26.25 2.30964 26.25 3C26.25 3.69036 26.8096 4.25 27.5 4.25Z" fill="#F8F8F8"/>
<path d="M10 13C9.30964 13 8.75 13.5596 8.75 14.25C8.75 14.9404 9.30964 15.5 10 15.5H17.5C18.1904 15.5 18.75 14.9404 18.75 14.25C18.75 13.5596 18.1904 13 17.5 13H10Z" fill="#F8F8F8"/>
<path fill-rule="evenodd" clip-rule="evenodd" d="M13.75 3C7.5368 3 2.5 8.0368 2.5 14.25C2.5 20.4632 7.5368 25.5 13.75 25.5C16.4063 25.5 18.8475 24.5794 20.7721 23.0399L26.6161 28.8839C27.1043 29.372 27.8957 29.372 28.3839 28.8839C28.872 28.3957 28.872 27.6043 28.3839 27.1161L22.5399 21.2721C24.0794 19.3475 25 16.9063 25 14.25C25 8.0368 19.9632 3 13.75 3ZM4.75 14.25C4.75 19.2206 8.77944 23.25 13.75 23.25C18.7206 23.25 22.75 19.2206 22.75 14.25C22.75 9.27944 18.7206 5.25 13.75 5.25C8.77944 5.25 4.75 9.27944 4.75 14.25Z" fill="#F8F8F8"/>
<path d="M3.75 28C3.75 28.6904 3.19036 29.25 2.5 29.25C1.80964 29.25 1.25 28.6904 1.25 28C1.25 27.3096 1.80964 26.75 2.5 26.75C3.19036 26.75 3.75 27.3096 3.75 28Z" fill="#F8F8F8"/>
</svg>
