<svg width="34" height="33" viewBox="0 0 34 33" fill="none" xmlns="http://www.w3.org/2000/svg">
<path d="M0.5 8.5C0.5 4.08172 4.08172 0.5 8.5 0.5H25.5C29.9183 0.5 33.5 4.08172 33.5 8.5V24.5C33.5 28.9183 29.9183 32.5 25.5 32.5H8.5C4.08172 32.5 0.5 28.9183 0.5 24.5V8.5Z" fill="#1DB779"/>
<path d="M0.5 8.5C0.5 4.08172 4.08172 0.5 8.5 0.5H25.5C29.9183 0.5 33.5 4.08172 33.5 8.5V24.5C33.5 28.9183 29.9183 32.5 25.5 32.5H8.5C4.08172 32.5 0.5 28.9183 0.5 24.5V8.5Z" fill="url(#paint0_linear_2002_2250)" fill-opacity="0.2" style="mix-blend-mode:darken"/>
<path d="M25.8735 10C20.9578 10 16.0422 10 11.1747 10C11.0783 10 11.0301 10 10.9337 10C10.6446 10.0964 10.5 10.3373 10.5 10.6747C10.5 13.1325 10.5 15.5422 10.5 18C10.5 20.4096 10.5 22.8675 10.5 25.2771C10.5 25.8072 10.6928 26 11.2229 26C13.7771 26 16.2831 26 18.8374 26C19.3675 26 19.5602 25.8072 19.5602 25.2771C19.5602 23.4458 19.5602 21.5663 19.5602 19.7349C19.5602 19.253 19.753 19.012 20.2349 19.012C22.1145 19.012 23.994 19.012 25.8735 19.012C26.3072 19.012 26.5 18.8193 26.5 18.3855C26.5 15.7831 26.5 13.2289 26.5 10.6265C26.5 10.241 26.259 10 25.8735 10ZM18.0181 17.8554H17.2952V15.3012L16.4277 17.8554H15.8012L14.8855 15.3012V17.8072H14.1145V14.241H15.2229L16.0422 16.6988L16.8614 14.241H17.9699V17.8554H18.0181ZM19.8976 16.1687H18.4036C18.4036 16.0723 18.4036 15.9759 18.4518 15.9277C18.4518 15.8313 18.5 15.7831 18.5482 15.7349C18.5964 15.6867 18.6446 15.6386 18.6928 15.5904C18.741 15.5422 18.7892 15.494 18.8374 15.4458C18.8855 15.3976 18.9337 15.3494 19.0301 15.3012C19.0301 15.3012 19.0783 15.253 19.1265 15.253C19.1747 15.2048 19.2229 15.2048 19.2229 15.2048C19.2229 15.2048 19.2711 15.1566 19.3193 15.1566C19.3675 15.1084 19.3675 15.1084 19.4157 15.0602C19.4157 15.012 19.4639 15.012 19.4639 14.9639C19.4639 14.9157 19.4639 14.8675 19.4639 14.8675C19.4639 14.7711 19.4157 14.7229 19.3675 14.6747C19.3193 14.6265 19.2229 14.5783 19.1747 14.5783C18.9819 14.5783 18.8374 14.7229 18.8374 15.012H18.4518V14.9639C18.4518 14.7229 18.5 14.5301 18.6446 14.4337C18.7892 14.2892 18.9819 14.241 19.1747 14.241C19.3675 14.241 19.5602 14.2892 19.6566 14.4337C19.8012 14.5301 19.8494 14.7229 19.8494 14.8675C19.8494 15.012 19.8012 15.1566 19.753 15.2048C19.7048 15.3012 19.5602 15.3976 19.4157 15.494C19.4157 15.494 19.3675 15.5422 19.3193 15.5422C19.2711 15.5904 19.2229 15.5904 19.1747 15.6386C19.1265 15.6386 19.1265 15.6867 19.0783 15.7349C19.0301 15.7831 18.9819 15.7831 18.9819 15.8313C18.9337 15.8795 18.9337 15.8795 18.8855 15.9277H19.8494V16.1687H19.8976Z" fill="#F8F8F8"/>
<path d="M26.5 8.42857C26.5 8.02041 26.5 7.65306 26.5 7.2449C26.5 7.08163 26.4064 7 26.2661 7C26.1257 7 26.0322 7.08163 26.0322 7.2449C26.0322 7.36735 26.0322 7.44898 26.0322 7.57143C26.0322 7.77551 26.0322 7.77551 25.7982 7.77551C20.9327 7.77551 16.0673 7.77551 11.2018 7.77551C11.155 7.77551 11.0614 7.77551 10.9678 7.77551C10.9678 7.57143 10.9678 7.40816 10.9678 7.20408C10.9678 7.08163 10.8743 7 10.7339 7C10.5936 7 10.5 7.08163 10.5 7.2449C10.5 7.73469 10.5 8.26531 10.5 8.7551C10.5 8.87755 10.5468 8.95918 10.7339 9C10.8743 9 10.9678 8.91837 10.9678 8.7551C10.9678 8.63265 10.9678 8.55102 10.9678 8.42857C10.9678 8.22449 10.9678 8.22449 11.2018 8.22449C16.0673 8.22449 20.9327 8.22449 25.7515 8.22449C25.7982 8.22449 25.845 8.22449 25.845 8.22449C25.9854 8.22449 25.9854 8.26531 25.9854 8.34694C25.9854 8.46939 25.9854 8.63265 25.9854 8.7551C25.9854 8.87755 26.0322 9 26.2193 9C26.3596 9 26.4532 8.91837 26.4532 8.7551C26.5 8.63265 26.5 8.5102 26.5 8.42857Z" fill="#F8F8F8"/>
<path d="M9.21429 25.5335C9.05102 25.5335 8.88776 25.5335 8.68367 25.5335C8.68367 25.4402 8.68367 25.3469 8.68367 25.2536C8.72449 20.449 8.72449 15.5977 8.72449 10.7464C8.72449 10.6997 8.72449 10.6531 8.72449 10.6064C8.72449 10.5131 8.76531 10.4665 8.84694 10.4665C9.0102 10.4665 9.13265 10.4665 9.29592 10.4665C9.41837 10.4665 9.5 10.3732 9.5 10.2332C9.5 10.0933 9.41837 10 9.29592 10C8.76531 10 8.27551 10 7.7449 10C7.58163 10 7.5 10.0933 7.5 10.2799C7.5 10.4198 7.58163 10.5131 7.70408 10.5131C7.78571 10.5131 7.82653 10.5131 7.90816 10.5131C8.03061 10.5131 8.15306 10.5131 8.27551 10.5131C8.27551 15.551 8.27551 20.5423 8.27551 25.5335C8.11224 25.5335 7.94898 25.5335 7.78571 25.5335C7.58163 25.5335 7.5 25.6268 7.5 25.7668C7.5 25.9067 7.58163 26 7.7449 26C8.23469 26 8.72449 26 9.21429 26C9.37755 26 9.45918 25.9067 9.45918 25.7668C9.5 25.6268 9.41837 25.5335 9.21429 25.5335Z" fill="#F8F8F8"/>
<defs>
<linearGradient id="paint0_linear_2002_2250" x1="16.7537" y1="-11.2895" x2="20.9094" y2="32.1366" gradientUnits="userSpaceOnUse">
<stop offset="0.149038" stop-color="white"/>
<stop offset="0.672967"/>
</linearGradient>
</defs>
</svg>
