<svg width="34" height="33" viewBox="0 0 34 33" fill="none" xmlns="http://www.w3.org/2000/svg">
<rect x="0.5" y="0.5" width="33" height="32" rx="10" fill="#499CFB"/>
<rect x="0.5" y="0.5" width="33" height="32" rx="10" fill="url(#paint0_linear_2001_647)"/>
<path d="M9.67769 14.3392C9.07689 13.4854 8.71641 12.6316 8.83657 11.5338C9.07689 10.0701 10.2785 8.85033 11.8406 8.60638C13.4026 8.36243 14.9647 9.33824 15.4453 10.8019C15.5655 11.2898 15.5655 11.7777 15.5655 12.2656C15.5655 12.5096 15.5655 12.7536 15.926 12.6316C16.7671 12.3876 17.488 12.3876 18.3292 12.6316C18.3292 10.68 19.0501 9.21626 20.9727 8.60638C22.2944 8.24046 23.7363 8.85033 24.5774 9.94811C25.4186 11.1679 25.4186 12.6316 24.3371 14.2173C24.4573 14.2173 24.4573 14.3392 24.5774 14.3392C25.779 14.8271 26.3798 15.8029 26.5 17.1447C26.5 18.2425 26.5 19.2183 26.5 20.316C26.5 21.1699 26.0194 21.6578 25.0581 21.6578C24.0968 21.6578 23.1355 21.6578 22.1743 21.6578C21.8138 21.6578 21.6936 21.7797 21.6936 22.1457C21.6936 22.8775 21.6936 23.4874 21.6936 24.2193C21.6936 24.7072 21.4533 25.1951 21.0928 25.317C20.6122 25.561 20.0114 25.561 19.4106 25.317C19.1703 25.1951 19.0501 24.9511 19.1703 24.7072C19.2904 24.3412 19.5308 24.2193 19.7711 24.2193C20.492 24.3412 20.492 23.9753 20.492 23.3654C20.492 22.6336 20.492 21.7797 20.492 20.9259C20.492 19.8281 19.7711 19.0963 18.6896 19.0963C17.6082 19.0963 16.4066 19.0963 15.3252 19.0963C14.2437 19.0963 13.5228 19.8281 13.5228 20.9259C13.5228 21.9017 13.5228 22.7555 13.5228 23.7314C13.5228 24.0973 13.6429 24.2193 14.0034 24.2193C14.1236 24.2193 14.3639 24.2193 14.4841 24.2193C14.7244 24.3412 14.8445 24.4632 14.8445 24.7072C14.8445 24.9511 14.7244 25.1951 14.4841 25.317C13.8833 25.439 13.4026 25.561 12.8018 25.1951C12.4414 25.1951 12.3212 24.8291 12.3212 24.3412C12.3212 23.6094 12.3212 22.8775 12.3212 22.1457C12.3212 21.7797 12.201 21.6578 11.8406 21.6578C10.8793 21.6578 9.91801 21.6578 8.95673 21.6578C7.8753 21.6578 7.51482 21.1699 7.51482 20.0721C7.51482 19.3402 7.51482 18.6084 7.51482 17.7546C7.39466 16.2908 7.99546 14.9491 9.67769 14.3392ZM14.4841 18.2425C13.8833 17.5106 13.6429 16.7787 13.6429 15.8029C13.6429 15.437 13.4026 15.559 13.2825 15.559C12.4414 15.559 11.4801 15.559 10.639 15.559C9.43737 15.559 8.71641 16.1689 8.71641 17.3886C8.71641 18.3644 8.71641 19.2183 8.71641 20.1941C8.71641 20.438 8.71641 20.682 9.07689 20.682C10.0382 20.682 10.9994 20.682 11.9607 20.682C12.201 20.682 12.3212 20.682 12.3212 20.438C12.6817 19.2183 13.4026 18.6084 14.4841 18.2425ZM19.5308 18.2425C20.6122 18.6084 21.213 19.2183 21.5735 20.1941C21.6936 20.438 21.6936 20.56 21.9339 20.56C22.8952 20.56 23.8565 20.56 24.8178 20.56C25.0581 20.56 25.1782 20.438 25.1782 20.1941C25.1782 19.2183 25.1782 18.1205 25.1782 17.1447C25.1782 16.1689 24.4573 15.559 23.496 15.437C22.5347 15.437 21.5735 15.437 20.7323 15.437C20.492 15.437 20.3719 15.437 20.3719 15.681C20.3719 16.6568 20.1316 17.5106 19.5308 18.2425ZM14.8445 15.9249C14.8445 17.1447 15.8058 18.1205 17.0074 18.1205C18.209 18.1205 19.1703 17.1447 19.1703 15.9249C19.1703 14.7052 18.209 13.6074 17.0074 13.6074C15.8058 13.7294 14.8445 14.7052 14.8445 15.9249ZM12.201 14.2173C13.4026 14.2173 14.3639 13.2415 14.3639 12.0217C14.4841 10.9239 13.5228 9.82614 12.3212 9.82614C11.1196 9.82614 10.0382 10.8019 10.0382 12.0217C10.0382 13.2415 10.9994 14.2173 12.201 14.2173ZM21.6936 9.82614C20.492 9.82614 19.5308 10.8019 19.5308 12.0217C19.5308 13.2415 20.492 14.2173 21.6936 14.2173C22.8952 14.2173 23.9767 13.2415 23.8565 12.0217C23.8565 10.8019 22.8952 9.82614 21.6936 9.82614Z" fill="#F8F8F8"/>
<defs>
<linearGradient id="paint0_linear_2001_647" x1="16.7537" y1="-11.2895" x2="20.9094" y2="32.1366" gradientUnits="userSpaceOnUse">
<stop offset="0.375" stop-color="#499CFB"/>
<stop offset="1" stop-color="#0D4F9A"/>
</linearGradient>
</defs>
</svg>
