<svg width="34" height="32" viewBox="0 0 34 32" fill="none" xmlns="http://www.w3.org/2000/svg">
<path d="M16.418 20.0762C14.4088 20.0762 12.3997 20.0762 10.3905 20.0762C9.36015 20.0762 8.74194 19.458 8.74194 18.4277C8.74194 16.5215 8.74194 14.6154 8.74194 12.7092C8.74194 11.6789 9.36015 11.0607 10.3905 11.0607C11.2663 11.0607 12.1421 11.0607 13.0179 11.0607C13.2239 11.0607 13.3785 11.0092 13.4815 10.8031C13.7391 10.3394 13.9967 9.92731 14.2543 9.46366C14.4604 9.15455 14.6664 9 15.0271 9C16.0059 9 16.9847 9 17.912 9C18.2211 9 18.4787 9.10303 18.6333 9.41214C18.8908 9.82428 19.1484 10.2364 19.3545 10.7001C19.5091 10.9577 19.7151 11.0607 20.0242 11.0607C20.8485 11.0607 21.6728 11.0607 22.5486 11.0607C23.5789 11.0607 24.1971 11.6789 24.1971 12.7092C24.1971 14.6669 24.1971 16.573 24.1971 18.5307C24.1971 19.5095 23.5789 20.1277 22.6001 20.1277C20.4879 20.0762 18.4787 20.0762 16.418 20.0762ZM16.4695 19.355C18.6848 19.355 20.5394 17.5519 20.5394 15.3366C20.5394 13.0699 18.7363 11.2668 16.4695 11.2668C14.2543 11.2668 12.3997 13.0699 12.3997 15.3366C12.3997 17.5519 14.2028 19.355 16.4695 19.355Z" fill="#F8F8F8"/>
<path d="M15.3361 23.2703C14.924 23.0127 14.5633 22.8066 14.2027 22.5491C13.9451 22.3945 13.8421 22.1369 13.9966 21.8793C14.1512 21.6217 14.4088 21.6217 14.6664 21.7763C15.4391 22.2915 16.2634 22.7551 17.0362 23.2703C17.4483 23.5279 17.4483 23.8885 17.0362 24.1461C16.2119 24.6613 15.4391 25.1764 14.6149 25.6401C14.3057 25.8462 13.9451 25.7431 13.8936 25.3825C13.8421 25.1764 13.9451 24.9704 14.1512 24.8673C14.4603 24.6613 14.7694 24.5067 15.0785 24.3006C15.13 24.2491 15.2331 24.2491 15.2846 24.0946C14.7694 24.0431 14.2542 24.0431 13.7391 23.9915C11.3177 23.7855 8.89643 23.4764 6.57816 22.6006C5.70236 22.2399 4.82657 21.8278 4.15685 21.1581C3.28105 20.2308 3.28105 19.1489 4.15685 18.2731C4.82657 17.5519 5.70236 17.1913 6.57816 16.8306C7.04181 16.6246 7.55699 16.47 8.07216 16.3155C8.22671 16.2639 8.27823 16.3155 8.27823 16.47C8.27823 16.7276 8.32974 16.9852 8.22671 17.1397C8.12368 17.4488 7.81457 17.3973 7.6085 17.5004C6.68119 17.8095 5.75388 18.1701 4.98112 18.8398C4.9296 18.8398 4.9296 18.8913 4.87809 18.8913C4.20836 19.5095 4.20836 20.1277 4.82657 20.7459C5.44478 21.3642 6.26905 21.6733 7.09333 21.9824C8.53581 22.5491 10.0813 22.8066 11.6269 23.0127C12.7087 23.1673 13.7906 23.2188 14.8724 23.2703C14.9755 23.2703 15.13 23.2703 15.3361 23.2703Z" fill="#F8F8F8"/>
<path d="M19.1999 24.0946C19.1484 24.0946 19.0968 24.0946 18.9938 24.0946C18.6847 24.0946 18.5302 23.9401 18.4786 23.6825C18.4786 23.4249 18.6332 23.2188 18.9423 23.2188C19.7151 23.1673 20.4363 23.1158 21.2091 23.0127C23.1152 22.7552 25.0213 22.3945 26.7729 21.5703C27.2366 21.3642 27.7002 21.1066 28.0609 20.746C28.6791 20.1278 28.6791 19.5611 28.0609 18.9429C27.5972 18.5307 27.082 18.2216 26.5153 17.964C26.0002 17.7065 25.4335 17.5519 24.9183 17.3974C24.7637 17.3458 24.6607 17.2943 24.7122 17.0883C24.7122 16.9852 24.7122 16.8307 24.7122 16.7276C24.7122 16.367 24.6607 16.367 25.0213 16.47C26.1032 16.7791 27.1335 17.1398 28.1124 17.8095C28.576 18.1186 28.9882 18.4792 29.2457 18.9429C29.6579 19.6641 29.5549 20.3854 29.0397 21.0551C28.473 21.7763 27.6487 22.24 26.8244 22.6006C25.2789 23.2703 23.6304 23.6309 21.9818 23.8885C21.0545 23.9401 20.1272 24.0431 19.1999 24.0946Z" fill="#F8F8F8"/>
<path d="M19.5605 15.2336C19.5605 16.9337 18.1695 18.3247 16.4695 18.3247C14.7694 18.3247 13.3784 16.9337 13.3784 15.2336C13.3784 13.5335 14.7694 12.0911 16.4695 12.0911C18.1695 12.0911 19.5605 13.482 19.5605 15.2336Z" fill="#F8F8F8"/>
</svg>
