<svg width="34" height="32" viewBox="0 0 34 32" fill="none" xmlns="http://www.w3.org/2000/svg">
<path d="M26.6021 25.1169C26.6757 25.1905 26.6757 25.2641 26.7493 25.3378C27.0437 25.853 27.3382 26.3683 27.6326 26.8835C27.7798 27.1043 27.7062 27.3252 27.559 27.4724C27.3382 27.546 27.191 27.4724 27.0437 27.2516C26.6757 26.5891 26.3077 26.0002 26.0132 25.3378C25.7924 25.1169 25.7188 25.1169 25.498 25.1169C21.1551 25.1169 16.7387 25.1169 12.3958 25.1169C12.2486 25.1169 12.175 25.1905 12.1014 25.3378C11.7334 26.0002 11.3653 26.5891 10.9973 27.2516C10.9237 27.3988 10.7765 27.546 10.5557 27.4724C10.2612 27.3988 10.1876 27.1779 10.3348 26.8835C10.6293 26.3683 10.9237 25.853 11.2181 25.3378C11.2917 25.2641 11.2917 25.1905 11.3653 25.1169C11.0709 25.1169 10.7765 25.1169 10.5557 25.1169C9.81958 25.1169 9.30433 24.8225 8.86268 24.16C7.75857 22.2462 6.58085 20.4061 5.40313 18.4923C5.03509 17.8298 5.1087 17.0937 5.55034 16.5785C6.06559 16.0632 6.80167 15.916 7.46414 16.284C7.68496 16.4312 7.90578 16.6521 8.12661 16.9465C8.64186 17.6826 9.0835 18.4187 9.52515 19.2283C9.59876 19.3755 9.67236 19.4492 9.89319 19.4492C11.3653 19.4492 12.8375 19.4492 14.3096 19.4492C15.3401 19.4492 15.929 20.1116 15.929 21.0685C15.929 21.2893 15.929 21.5102 15.929 21.731C15.929 22.0254 15.929 22.0254 16.2234 22.0254C16.4443 22.0254 16.6651 22.0254 16.9595 22.0254C20.3455 22.0254 23.7314 22.0254 27.191 22.0254C27.927 22.0254 28.5159 22.3935 28.7367 23.0559C29.1047 24.0864 28.3687 25.1905 27.2646 25.1905C27.0437 25.1169 26.8229 25.1169 26.6021 25.1169ZM10.114 20.038C10.1876 20.1116 10.1876 20.1852 10.1876 20.2588C10.482 20.7741 10.7765 21.2893 11.0709 21.8046C11.1445 21.9518 11.2181 21.9518 11.3653 21.9518C12.5431 21.9518 13.7208 21.9518 14.8985 21.9518C14.9721 21.9518 15.0457 21.9518 15.1193 21.9518C15.1193 21.5838 15.1193 21.2893 15.1193 20.9949C15.1193 20.4061 14.8249 20.1116 14.236 20.1116C12.9111 20.1116 11.5862 20.1116 10.2612 20.1116C10.2612 20.038 10.1876 20.038 10.114 20.038Z" fill="#F8F8F8"/>
<path d="M21.0816 4.50685C19.3886 6.42064 18.5789 8.62887 17.7692 10.9107C17.6956 11.0579 17.6956 11.1315 17.6956 11.2051C16.4443 9.9538 14.9721 9.58577 13.2056 10.101C13.6472 8.55526 14.4569 7.30393 15.6346 6.27343C17.1804 4.94849 19.0206 4.43324 21.0816 4.50685Z" fill="#F8F8F8"/>
<path d="M27.9273 13.7078C27.3385 13.0453 26.6024 12.6773 25.7927 12.4565C24.983 12.3092 24.1733 12.3092 23.4373 12.6037C23.7317 10.101 24.0997 7.59836 23.4373 5.0957C24.7622 5.68456 25.7927 6.49425 26.6024 7.59836C27.9273 9.43855 28.369 11.426 27.9273 13.7078Z" fill="#F8F8F8"/>
<path d="M22.7008 12.3828C22.1119 11.7939 21.4494 11.4259 20.7134 11.2051C19.9037 11.0578 19.1676 11.1315 18.4315 11.3523C18.4315 11.2787 18.4315 11.2787 18.4315 11.2051C18.9468 9.51209 19.6092 7.81912 20.5661 6.27336C20.8606 5.83171 21.2286 5.39007 21.5966 5.02203C22.1119 4.50678 22.4799 4.58038 22.7744 5.31646C22.9952 5.97893 23.0688 6.715 23.0688 7.37747C23.1424 8.99684 22.9952 10.6162 22.7008 12.2356C22.7744 12.3092 22.7008 12.3092 22.7008 12.3828Z" fill="#F8F8F8"/>
<path d="M17.9899 21.2893C18.0635 20.8477 18.1371 20.4796 18.2843 20.1116C18.9468 17.4617 19.5356 14.7382 20.1981 12.0884C20.2717 11.8676 20.3453 11.8676 20.4925 11.8676C20.9342 11.9412 20.9342 11.9412 20.8606 12.3828C20.1981 15.1799 19.5356 18.0506 18.8732 20.8477C18.7996 21.2157 18.8732 21.2157 18.4315 21.2157C18.2843 21.2893 18.1371 21.2893 17.9899 21.2893Z" fill="#F8F8F8"/>
</svg>
