<svg width="34" height="32" viewBox="0 0 34 32" fill="none" xmlns="http://www.w3.org/2000/svg">
<path d="M27.909 8.40002C21.7272 8.40002 15.5454 8.40002 9.42417 8.40002C9.30296 8.40002 9.24235 8.40002 9.12114 8.40002C8.7575 8.52002 8.57568 8.82002 8.57568 9.24002C8.57568 12.3 8.57568 15.3 8.57568 18.36C8.57568 21.36 8.57568 24.42 8.57568 27.42C8.57568 28.08 8.81811 28.32 9.48477 28.32C12.6969 28.32 15.8484 28.32 19.0605 28.32C19.7272 28.32 19.9696 28.08 19.9696 27.42C19.9696 25.14 19.9696 22.8 19.9696 20.52C19.9696 19.92 20.212 19.62 20.8181 19.62C23.1817 19.62 25.5454 19.62 27.909 19.62C28.4545 19.62 28.6969 19.38 28.6969 18.84C28.6969 15.6 28.6969 12.42 28.6969 9.18002C28.6969 8.70002 28.3939 8.40002 27.909 8.40002ZM18.0302 18.18H17.1211V15L16.0302 18.18H15.2424L14.0908 15V18.12H13.1211V13.68H14.5151L15.5454 16.74L16.5757 13.68H17.9696V18.18H18.0302ZM20.3939 16.08H18.5151C18.5151 15.96 18.5151 15.84 18.5757 15.78C18.5757 15.66 18.6363 15.6 18.6969 15.54C18.7575 15.48 18.8181 15.42 18.8787 15.36C18.9393 15.3 18.9999 15.24 19.0605 15.18C19.1211 15.12 19.1817 15.06 19.303 15C19.303 15 19.3636 14.94 19.4242 14.94C19.4848 14.88 19.5454 14.88 19.5454 14.88C19.5454 14.88 19.606 14.82 19.6666 14.82C19.7272 14.76 19.7272 14.76 19.7878 14.7C19.7878 14.64 19.8484 14.64 19.8484 14.58C19.8484 14.52 19.8484 14.46 19.8484 14.46C19.8484 14.34 19.7878 14.28 19.7272 14.22C19.6666 14.16 19.5454 14.1 19.4848 14.1C19.2424 14.1 19.0605 14.28 19.0605 14.64H18.5757V14.58C18.5757 14.28 18.6363 14.04 18.8181 13.92C18.9999 13.74 19.2424 13.68 19.4848 13.68C19.7272 13.68 19.9696 13.74 20.0908 13.92C20.2727 14.04 20.3333 14.28 20.3333 14.46C20.3333 14.64 20.2727 14.82 20.212 14.88C20.1514 15 19.9696 15.12 19.7878 15.24C19.7878 15.24 19.7272 15.3 19.6666 15.3C19.606 15.36 19.5454 15.36 19.4848 15.42C19.4242 15.42 19.4242 15.48 19.3636 15.54C19.303 15.6 19.2424 15.6 19.2424 15.66C19.1817 15.72 19.1817 15.72 19.1211 15.78H20.3333V16.08H20.3939Z" fill="#F8F8F8"/>
<path d="M29 6.6C29 6 29 5.46 29 4.86C29 4.62 28.8788 4.5 28.6969 4.5C28.5151 4.5 28.3939 4.62 28.3939 4.86C28.3939 5.04 28.3939 5.16 28.3939 5.34C28.3939 5.64 28.3939 5.64 28.0909 5.64C21.7879 5.64 15.4848 5.64 9.1818 5.64C9.12119 5.64 8.99998 5.64 8.87877 5.64C8.87877 5.34 8.87877 5.1 8.87877 4.8C8.87877 4.62 8.75755 4.5 8.57574 4.5C8.39392 4.5 8.27271 4.62 8.27271 4.86C8.27271 5.58 8.27271 6.36 8.27271 7.08C8.27271 7.26 8.33331 7.38 8.57574 7.44C8.75755 7.44 8.87877 7.32 8.87877 7.08C8.87877 6.9 8.87877 6.78 8.87877 6.6C8.87877 6.3 8.87877 6.3 9.1818 6.3C15.4848 6.3 21.7879 6.3 28.0303 6.3C28.0909 6.3 28.1515 6.3 28.1515 6.3C28.3333 6.3 28.3333 6.36 28.3333 6.48C28.3333 6.66 28.3333 6.9 28.3333 7.08C28.3333 7.26 28.3939 7.44 28.6363 7.44C28.8182 7.44 28.9394 7.32 28.9394 7.08C29 6.9 29 6.72 29 6.6Z" fill="#F8F8F8"/>
<path d="M7.54545 27.9C7.30303 27.9 7.06061 27.9 6.75758 27.9C6.75758 27.78 6.75758 27.66 6.75758 27.54C6.81818 21.36 6.81818 15.12 6.81818 8.88004C6.81818 8.82004 6.81818 8.76004 6.81818 8.70004C6.81818 8.58004 6.87879 8.52004 7 8.52004C7.24242 8.52004 7.42424 8.52004 7.66667 8.52004C7.84848 8.52004 7.9697 8.40004 7.9697 8.22004C7.9697 8.04004 7.84848 7.92004 7.66667 7.92004C6.87879 7.92004 6.15152 7.92004 5.36364 7.92004C5.12121 7.92004 5 8.04004 5 8.28004C5 8.46004 5.12121 8.58004 5.30303 8.58004C5.42424 8.58004 5.48485 8.58004 5.60606 8.58004C5.78788 8.58004 5.9697 8.58004 6.15152 8.58004C6.15152 15.06 6.15152 21.48 6.15152 27.9C5.90909 27.9 5.66667 27.9 5.42424 27.9C5.12121 27.9 5 28.02 5 28.2C5 28.38 5.12121 28.5 5.36364 28.5C6.09091 28.5 6.81818 28.5 7.54545 28.5C7.78788 28.5 7.90909 28.38 7.90909 28.2C7.9697 28.02 7.84848 27.9 7.54545 27.9Z" fill="#F8F8F8"/>
</svg>
