<svg width="33" height="33" viewBox="0 0 33 33" fill="none" xmlns="http://www.w3.org/2000/svg">
<path d="M15.9404 5.53076C17.8477 5.53076 19.6358 5.53076 21.543 5.53076C23.5695 5.53076 25 6.96123 25 8.86851C25 11.2526 25 13.6367 25 16.0208C25 18.0473 23.5695 19.3586 21.6623 19.3586C17.9669 19.3586 14.1523 19.3586 10.457 19.3586C8.43046 19.4778 7 18.0473 7 16.14C7 13.7559 7 11.3718 7 8.98772C7 6.96123 8.43046 5.53076 10.3377 5.53076C12.245 5.53076 14.1523 5.53076 15.9404 5.53076ZM13.7947 12.4447C13.7947 13.0407 13.7947 13.5175 13.7947 14.1135C13.7947 14.7096 14.2715 15.0672 14.8675 14.8288C15.9404 14.2327 17.1325 13.7559 18.2053 13.1599C18.4437 13.0407 18.6821 12.8023 18.6821 12.4447C18.6821 12.0871 18.5629 11.9678 18.2053 11.7294C17.1325 11.2526 16.0596 10.6566 14.9868 10.1798C14.3907 9.94136 13.9139 10.1798 13.9139 10.895C13.7947 11.3718 13.7947 11.9678 13.7947 12.4447Z" fill="#F8F8F8"/>
<path d="M12.6027 21.0276C14.1523 21.0276 15.702 21.0276 17.2517 21.0276C17.4901 21.0276 17.6093 21.0276 17.6093 20.67C17.6093 20.0739 17.9669 19.7163 18.4437 19.7163C18.9205 19.7163 19.2782 20.0739 19.2782 20.67C19.2782 21.3852 19.2782 22.2196 19.2782 22.9349C19.2782 23.4117 18.9205 23.7693 18.4437 23.7693C17.9669 23.7693 17.6093 23.4117 17.6093 22.9349C17.6093 22.5772 17.4901 22.5772 17.2517 22.5772C14.1523 22.5772 11.053 22.5772 8.07286 22.5772C7.47683 22.5772 7.11922 22.3388 7.11922 21.862C6.88081 21.5044 7.35763 21.0276 7.95365 21.0276C9.26491 21.0276 10.6954 21.0276 12.0066 21.0276C12.245 21.0276 12.3642 21.0276 12.6027 21.0276Z" fill="#F8F8F8"/>
<path d="M22.4967 21.0275C22.9735 21.0275 23.5696 21.0275 24.0464 21.0275C24.6424 21.0275 25 21.3851 25 21.8619C25 22.3387 24.6424 22.6963 24.0464 22.6963C22.9735 22.6963 22.0199 22.6963 20.9471 22.6963C20.4702 22.6963 19.9934 22.3387 19.9934 21.8619C19.9934 21.3851 20.351 21.0275 20.8278 21.0275C21.5431 21.0275 22.0199 21.0275 22.4967 21.0275Z" fill="#F8F8F8"/>
</svg>
