<svg width="34" height="32" viewBox="0 0 34 32" fill="none" xmlns="http://www.w3.org/2000/svg">
<path d="M25.4969 14.0932C25.4969 14.0482 25.4969 13.9583 25.4969 13.9133C25.4519 13.5533 25.0919 13.3284 24.732 13.4184C24.4621 13.5083 24.3721 13.7333 24.3721 14.0482C24.3721 16.0728 24.3721 18.0974 24.3721 20.167C24.3721 20.3019 24.3271 20.3469 24.2371 20.3919C22.9774 20.8868 21.7176 21.3817 20.4579 21.8766C20.2779 21.9666 20.098 22.0116 19.873 22.1016C19.873 22.0116 19.873 21.9666 19.873 21.8766C19.873 20.032 19.873 18.1874 19.873 16.3428C19.873 16.2978 19.873 16.2078 19.873 16.1628C19.828 15.8479 19.6031 15.6679 19.3331 15.6679C19.0632 15.6679 18.7933 15.8929 18.7933 16.2078C18.7933 16.2528 18.7933 16.3428 18.7933 16.3877C18.7933 18.2324 18.7933 20.077 18.7933 21.9216C18.7933 21.9666 18.7933 22.0566 18.7933 22.1465C18.7483 22.1465 18.7033 22.1016 18.6583 22.1016C17.2186 21.5167 15.8239 20.9768 14.3842 20.3919C14.2492 20.3469 14.2492 20.2569 14.2492 20.167C14.2492 17.3326 14.2492 14.4532 14.2492 11.6187C14.2492 11.5738 14.2492 11.5288 14.2492 11.4388C14.4742 11.5288 14.6541 11.6187 14.8791 11.6637C15.5539 11.9337 16.1838 12.2036 16.8587 12.4286C17.2186 12.5635 17.5335 12.3836 17.6235 12.0686C17.7135 11.7987 17.5335 11.5288 17.2186 11.3938C16.1388 10.9439 15.059 10.539 13.9343 10.0891C13.7543 9.99908 13.5743 10.0441 13.3944 10.0891C11.5948 10.8089 9.79513 11.5288 7.95052 12.2486C7.63558 12.3836 7.50061 12.5635 7.50061 12.9235C7.50061 16.2528 7.50061 19.5371 7.50061 22.8664C7.50061 22.9564 7.50061 23.0014 7.50061 23.0914C7.5456 23.3613 7.90553 23.6312 8.35543 23.4513C10.0651 22.7764 11.7747 22.0566 13.4844 21.3817C13.6193 21.3367 13.7093 21.3367 13.8443 21.3817C15.5539 22.0566 17.2636 22.7314 18.9282 23.4513C19.1532 23.5413 19.3781 23.5413 19.6031 23.4513C21.4027 22.7314 23.1573 22.0116 24.957 21.2917C25.3169 21.1568 25.4519 20.9768 25.4519 20.5719C25.4969 18.4123 25.4969 16.2528 25.4969 14.0932ZM12.9895 20.3919C11.5948 20.9318 10.1551 21.5167 8.76035 22.0566C8.71536 22.0566 8.67037 22.1016 8.62538 22.1016C8.62538 22.0116 8.62538 21.9666 8.62538 21.9216C8.62538 19.0872 8.62538 16.2528 8.62538 13.3734C8.62538 13.2384 8.62538 13.1934 8.76035 13.1484C10.1551 12.6085 11.5498 12.0237 12.9445 11.4838C12.9895 11.4838 13.0345 11.4388 13.1244 11.3938C13.1244 11.4388 13.1244 11.5288 13.1244 11.5738C13.1244 14.4532 13.1244 17.2876 13.1244 20.167C13.1244 20.2569 13.1244 20.3469 12.9895 20.3919Z" fill="#F8F8F8"/>
<path d="M18.4332 11.7537C19.198 13.1034 20.1428 14.2732 21.1326 15.4429C21.4026 15.7579 21.7625 15.7579 22.0324 15.4429C22.5273 14.8581 23.0222 14.2282 23.5171 13.5983C24.192 12.7435 24.7769 11.8437 25.1818 10.8089C25.4967 10.134 25.5867 9.41418 25.4517 8.69433C25.0468 6.84972 23.4271 5.5 21.5375 5.5C21.2676 5.54499 20.9977 5.54499 20.7277 5.63497C19.288 5.94991 18.2982 6.84972 17.8033 8.24443C17.5784 8.8743 17.5334 9.50417 17.7133 10.134C17.8933 10.6739 18.1183 11.2138 18.4332 11.7537ZM21.5825 7.74953C22.4823 7.74953 23.2472 8.51437 23.2472 9.41418C23.2472 10.314 22.4823 11.1238 21.5375 11.1238C20.5927 11.1238 19.8279 10.314 19.8729 9.41418C19.8729 8.51437 20.6377 7.74953 21.5825 7.74953Z" fill="#F8F8F8"/>
</svg>
