<svg width="45" height="58" viewBox="0 0 45 58" fill="none" xmlns="http://www.w3.org/2000/svg">
<path d="M42.6773 25.6697C42.6773 35.0166 36.6288 42.7986 27.7276 45.1247C26.9769 45.3151 26.505 45.6534 26.1833 46.3724C25.5613 47.7047 24.8535 49.0158 24.21 50.348C23.8454 51.067 23.3306 51.5322 22.4727 51.5111C21.6577 51.4899 21.1643 51.0247 20.8212 50.348C20.1348 48.9735 19.3841 47.5989 18.7406 46.2032C18.4833 45.6323 18.1401 45.3574 17.5181 45.2093C8.14503 42.7352 2.13942 34.8263 2.33246 25.3313C2.54695 15.3289 10.4615 7.10279 20.8426 6.08774C30.6875 5.13614 40.1463 12.03 42.2269 21.6518C42.5271 23.0686 42.6987 24.5066 42.6773 25.6697Z" fill="#FB4949"/>
<path d="M42.6773 25.6697C42.6773 35.0166 36.6288 42.7986 27.7276 45.1247C26.9769 45.3151 26.505 45.6534 26.1833 46.3724C25.5613 47.7047 24.8535 49.0158 24.21 50.348C23.8454 51.067 23.3306 51.5322 22.4727 51.5111C21.6577 51.4899 21.1643 51.0247 20.8212 50.348C20.1348 48.9735 19.3841 47.5989 18.7406 46.2032C18.4833 45.6323 18.1401 45.3574 17.5181 45.2093C8.14503 42.7352 2.13942 34.8263 2.33246 25.3313C2.54695 15.3289 10.4615 7.10279 20.8426 6.08774C30.6875 5.13614 40.1463 12.03 42.2269 21.6518C42.5271 23.0686 42.6987 24.5066 42.6773 25.6697Z" fill="url(#paint0_linear_256_1432)"/>
<path d="M22.5111 57.9789C20.5807 57.9789 18.6503 57.9789 16.7414 57.9789C15.4974 57.9789 14.7467 57.3233 14.7252 56.2871C14.7038 55.2298 15.4545 54.5531 16.6771 54.5531C20.5593 54.5319 24.4415 54.5319 28.3451 54.5531C29.5891 54.5531 30.3184 55.2509 30.3184 56.2871C30.2969 57.3233 29.5462 57.9789 28.3022 58C26.3504 58 24.42 57.9789 22.5111 57.9789Z" fill="#FB4949"/>
<path d="M22.5111 57.9789C20.5807 57.9789 18.6503 57.9789 16.7414 57.9789C15.4974 57.9789 14.7467 57.3233 14.7252 56.2871C14.7038 55.2298 15.4545 54.5531 16.6771 54.5531C20.5593 54.5319 24.4415 54.5319 28.3451 54.5531C29.5891 54.5531 30.3184 55.2509 30.3184 56.2871C30.2969 57.3233 29.5462 57.9789 28.3022 58C26.3504 58 24.42 57.9789 22.5111 57.9789Z" fill="url(#paint1_linear_256_1432)"/>
<path d="M22.6526 29.9169C20.8402 29.9169 19.0278 29.9169 17.2155 29.9169C16.286 29.9169 15.7284 29.3634 15.7284 28.4409C15.7284 26.7343 15.7284 25.0276 15.7284 23.321C15.7284 22.3985 16.286 21.845 17.2155 21.845C18.0055 21.845 18.7955 21.845 19.5855 21.845C19.7714 21.845 19.9108 21.7989 20.0037 21.6144C20.2361 21.1993 20.4684 20.8303 20.7008 20.4151C20.8867 20.1384 21.0726 20 21.3979 20C22.2808 20 23.1638 20 24.0002 20C24.2791 20 24.5114 20.0923 24.6508 20.369C24.8832 20.738 25.1155 21.107 25.3014 21.5221C25.4408 21.7528 25.6267 21.845 25.9055 21.845C26.6491 21.845 27.3926 21.845 28.1826 21.845C29.112 21.845 29.6697 22.3985 29.6697 23.321C29.6697 25.0738 29.6697 26.7804 29.6697 28.5331C29.6697 29.4095 29.112 29.963 28.2291 29.963C26.3238 29.9169 24.5114 29.9169 22.6526 29.9169ZM22.699 29.2711C24.6973 29.2711 26.3703 27.6568 26.3703 25.6734C26.3703 23.6439 24.7438 22.0295 22.699 22.0295C20.7008 22.0295 19.0278 23.6439 19.0278 25.6734C19.0278 27.6568 20.6543 29.2711 22.699 29.2711Z" fill="#F8F8F8"/>
<path d="M21.6767 32.7767C21.305 32.546 20.9797 32.3615 20.6544 32.1309C20.422 31.9925 20.3291 31.7619 20.4685 31.5313C20.6079 31.3007 20.8402 31.3007 21.0726 31.439C21.7697 31.9003 22.5132 32.3154 23.2103 32.7767C23.582 33.0073 23.582 33.3302 23.2103 33.5608C22.4667 34.022 21.7697 34.4833 21.0261 34.8984C20.7473 35.0829 20.422 34.9907 20.3755 34.6678C20.3291 34.4833 20.422 34.2988 20.6079 34.2065C20.8867 34.022 21.1655 33.8837 21.4444 33.6992C21.4908 33.653 21.5838 33.653 21.6302 33.5147C21.1655 33.4685 20.7008 33.4685 20.2361 33.4224C18.052 33.2379 15.8678 32.9612 13.7766 32.177C12.9866 31.8542 12.1966 31.4852 11.5925 30.8855C10.8025 30.0553 10.8025 29.0866 11.5925 28.3025C12.1966 27.6568 12.9866 27.3339 13.7766 27.011C14.1949 26.8265 14.6596 26.6881 15.1243 26.5498C15.2637 26.5036 15.3102 26.5498 15.3102 26.6881C15.3102 26.9188 15.3567 27.1494 15.2637 27.2878C15.1708 27.5645 14.8919 27.5184 14.7061 27.6106C13.8696 27.8874 13.0331 28.2103 12.336 28.8099C12.2896 28.8099 12.2896 28.856 12.2431 28.856C11.639 29.4095 11.639 29.963 12.1966 30.5165C12.7543 31.07 13.4978 31.3468 14.2414 31.6235C15.5425 32.1309 16.9367 32.3615 18.3308 32.546C19.3067 32.6844 20.2826 32.7305 21.2585 32.7767C21.3514 32.7767 21.4908 32.7767 21.6767 32.7767Z" fill="#F8F8F8"/>
<path d="M25.1619 33.5147C25.1155 33.5147 25.069 33.5147 24.9761 33.5147C24.6972 33.5147 24.5578 33.3763 24.5114 33.1457C24.5114 32.9151 24.6508 32.7306 24.9296 32.7306C25.6267 32.6845 26.2773 32.6383 26.9743 32.5461C28.6937 32.3155 30.4132 31.9926 31.9932 31.2546C32.4114 31.0701 32.8297 30.8395 33.155 30.5166C33.7126 29.9631 33.7126 29.4557 33.155 28.9022C32.7367 28.5332 32.272 28.2565 31.7608 28.0258C31.2961 27.7952 30.7849 27.6568 30.3202 27.5185C30.1808 27.4723 30.0879 27.4262 30.1343 27.2417C30.1343 27.1495 30.1343 27.0111 30.1343 26.9188C30.1343 26.596 30.0879 26.596 30.4132 26.6882C31.3891 26.965 32.3185 27.2878 33.2014 27.8875C33.6197 28.1642 33.9914 28.4871 34.2238 28.9022C34.5956 29.548 34.5026 30.1937 34.0379 30.7933C33.5267 31.4391 32.7832 31.8542 32.0397 32.1771C30.6455 32.7767 29.1585 33.0996 27.6714 33.3302C26.8349 33.3763 25.9984 33.4686 25.1619 33.5147Z" fill="#F8F8F8"/>
<path d="M25.4874 25.5812C25.4874 27.1033 24.2326 28.3487 22.6991 28.3487C21.1655 28.3487 19.9108 27.1033 19.9108 25.5812C19.9108 24.0591 21.1655 22.7676 22.6991 22.7676C24.2326 22.7676 25.4874 24.013 25.4874 25.5812Z" fill="#F8F8F8"/>
<defs>
<linearGradient id="paint0_linear_256_1432" x1="27.7973" y1="-10.3007" x2="23.484" y2="51.4944" gradientUnits="userSpaceOnUse">
<stop offset="0.15" stop-color="#B40000"/>
<stop offset="0.711048" stop-color="#FB4949"/>
</linearGradient>
<linearGradient id="paint1_linear_256_1432" x1="22.4052" y1="53.2615" x2="22.5091" y2="58.0015" gradientUnits="userSpaceOnUse">
<stop offset="0.15" stop-color="#8E0606"/>
<stop offset="0.757065" stop-color="#FB4949"/>
</linearGradient>
</defs>
</svg>
