<svg width="45" height="58" viewBox="0 0 45 58" fill="none" xmlns="http://www.w3.org/2000/svg">
<g clip-path="url(#clip0_146_856)">
<path d="M45.005 21.9393C45.005 32.3646 38.2586 41.0446 28.3304 43.6391C27.4931 43.8514 26.9668 44.2288 26.6079 45.0308C25.9141 46.5167 25.1247 47.9791 24.4069 49.4651C24.0003 50.267 23.4261 50.786 22.4692 50.7624C21.5601 50.7388 21.0098 50.2199 20.627 49.4651C19.8615 47.9319 19.0242 46.3988 18.3065 44.8421C18.0194 44.2052 17.6366 43.8986 16.9428 43.7335C6.48829 40.9738 -0.21027 32.1524 0.00504087 21.5619C0.244275 10.4053 9.07203 1.23004 20.651 0.0978692C31.6318 -0.963538 42.1821 6.72577 44.5026 17.4578C44.8376 19.0381 45.029 20.642 45.005 21.9393Z" fill="#FBE049"/>
<path d="M45.005 21.9393C45.005 32.3646 38.2586 41.0446 28.3304 43.6391C27.4931 43.8514 26.9668 44.2288 26.6079 45.0308C25.9141 46.5167 25.1247 47.9791 24.4069 49.4651C24.0003 50.267 23.4261 50.786 22.4692 50.7624C21.5601 50.7388 21.0098 50.2199 20.627 49.4651C19.8615 47.9319 19.0242 46.3988 18.3065 44.8421C18.0194 44.2052 17.6366 43.8986 16.9428 43.7335C6.48829 40.9738 -0.21027 32.1524 0.00504087 21.5619C0.244275 10.4053 9.07203 1.23004 20.651 0.0978692C31.6318 -0.963538 42.1821 6.72577 44.5026 17.4578C44.8376 19.0381 45.029 20.642 45.005 21.9393Z" fill="url(#paint0_linear_146_856)"/>
<path d="M22.5119 57.9765C20.3588 57.9765 18.2057 57.9765 16.0765 57.9765C14.689 57.9765 13.8517 57.2453 13.8277 56.0895C13.8038 54.9102 14.6411 54.1554 16.0048 54.1554C20.3349 54.1318 24.6651 54.1318 29.0191 54.1554C30.4067 54.1554 31.2201 54.9337 31.2201 56.0895C31.1962 57.2453 30.3588 57.9764 28.9713 58C26.7942 58 24.6411 57.9765 22.5119 57.9765Z" fill="#FBE049"/>
<path d="M22.5119 57.9765C20.3588 57.9765 18.2057 57.9765 16.0765 57.9765C14.689 57.9765 13.8517 57.2453 13.8277 56.0895C13.8038 54.9102 14.6411 54.1554 16.0048 54.1554C20.3349 54.1318 24.6651 54.1318 29.0191 54.1554C30.4067 54.1554 31.2201 54.9337 31.2201 56.0895C31.1962 57.2453 30.3588 57.9764 28.9713 58C26.7942 58 24.6411 57.9765 22.5119 57.9765Z" fill="url(#paint1_linear_146_856)"/>
<path d="M14.8657 17.9487C15.633 17.4913 16.477 17.0338 17.321 16.6526C17.5512 16.5763 17.6279 16.4239 17.6279 16.1951C17.6279 16.0426 17.6279 15.8139 17.6279 15.6614C17.6279 15.4327 17.8581 15.2802 18.165 15.2802C18.3952 15.2802 18.6253 15.4327 18.6253 15.6614C18.6253 15.8139 18.6253 15.9664 18.7021 16.1951C19.6995 15.9664 20.6969 15.7377 21.6944 15.7377C21.9246 15.7377 21.9246 15.6614 21.9246 15.4327C21.9246 15.2802 21.9246 15.0515 21.9246 14.899C22.0013 14.594 22.1547 14.4415 22.4616 14.4415C22.7686 14.4415 23.0755 14.594 22.9987 14.899C22.8453 15.6614 23.3056 15.7377 23.9194 15.7377C24.6867 15.7377 25.454 15.9664 26.2212 16.1189C26.3747 15.9664 26.298 15.8139 26.298 15.6614C26.3747 15.3564 26.5281 15.2039 26.835 15.2039C27.1419 15.2039 27.4489 15.4327 27.3721 15.6614C27.2187 16.4239 27.679 16.6526 28.2928 16.8051C28.9067 17.0338 29.5205 17.415 30.1343 17.7962C30.3645 17.4913 30.2877 17.2625 30.0575 17.0338C29.367 15.9664 29.5205 14.5177 30.5179 13.6791C31.5153 12.8404 32.9731 12.8404 33.9706 13.6791C34.968 14.5177 35.1982 15.9664 34.5077 17.0338C34.3542 17.3388 34.3542 17.4913 34.3542 17.7962C34.8913 21.9897 35.4284 26.1069 35.9655 30.3003C36.0422 30.9865 36.1189 31.7489 36.2724 32.4351C36.3491 33.1213 36.1956 33.35 35.5051 33.35C33.9706 33.35 32.4361 33.35 30.9015 33.35C30.2877 33.35 30.1343 33.1976 30.1343 32.5876C30.1343 32.2826 30.0575 32.2064 29.7506 32.2064C24.9169 32.2064 20.0831 32.2064 15.2494 32.2064C14.9425 32.2064 14.8657 32.2826 14.8657 32.5876C14.8657 33.1976 14.7123 33.35 14.0985 33.35C12.564 33.35 11.0294 33.35 9.4949 33.35C8.80437 33.35 8.65092 33.1213 8.72764 32.5114C9.34145 27.6317 10.032 22.7521 10.6458 17.8725C10.7225 17.4913 10.6458 17.2625 10.4923 16.8813C9.72508 15.9664 10.032 14.5177 11.0294 13.7553C12.0269 12.9166 13.4847 12.9929 14.4821 13.8316C15.4028 14.6702 15.633 16.1189 14.8657 17.1863C14.7123 17.4913 14.7123 17.72 14.8657 17.9487ZM13.7148 25.4207C13.7148 23.5908 13.7148 21.7609 13.7148 19.9311C13.7148 19.4736 13.8683 18.7874 13.6381 18.5587C13.3312 18.1775 12.6407 18.4824 12.1803 18.4062C11.72 18.33 11.5665 18.5587 11.5665 19.0162C11.1062 22.4471 10.6458 25.8781 10.1854 29.3854C10.1087 29.6903 10.032 30.0716 10.1087 30.3003C10.2622 30.529 10.6458 30.3765 10.9527 30.3765C11.2596 30.3765 11.4898 30.529 11.4898 30.9102C11.4898 31.2915 11.2596 31.4439 10.9527 31.4439C10.7225 31.4439 10.4156 31.4439 10.1854 31.4439C9.64836 31.4439 9.87854 31.9014 9.80181 32.2064C9.72508 32.5114 10.032 32.4351 10.1854 32.4351C11.1829 32.4351 12.1803 32.4351 13.1778 32.4351C13.5614 32.4351 13.7148 32.3589 13.7148 31.9014C13.7148 29.7666 13.7148 27.5555 13.7148 25.4207ZM31.1317 25.4207C31.1317 27.6317 31.1317 29.7666 31.1317 31.9777C31.1317 32.2826 31.2084 32.4351 31.5921 32.4351C32.5128 32.4351 33.5102 32.4351 34.4309 32.4351C35.1215 32.4351 35.0448 32.4351 34.968 31.8252C34.8913 31.5964 34.8146 31.4439 34.5844 31.5202C34.3542 31.5202 34.0473 31.5202 33.8171 31.5202C33.5102 31.4439 33.3568 31.2915 33.3568 30.9865C33.3568 30.6815 33.587 30.529 33.8171 30.529C33.9706 30.529 34.2008 30.529 34.3542 30.529C34.7378 30.6053 34.8913 30.4528 34.8146 30.0716C34.6611 29.1566 34.5844 28.2417 34.4309 27.403C34.0473 24.582 33.6637 21.7609 33.3568 19.0162C33.2033 18.4824 33.1266 18.4062 32.8197 18.4062C32.4361 18.4062 32.0524 18.4062 31.6688 18.4062C31.2852 18.33 31.1317 18.5587 31.2084 18.9399C31.1317 21.0747 31.1317 23.2096 31.1317 25.4207ZM18.6253 27.6317C18.6253 28.6992 18.6253 29.8428 18.6253 30.9102C18.6253 31.2152 18.7021 31.2915 19.009 31.2915C19.853 31.2915 20.6202 31.2915 21.4642 31.2915C21.7711 31.2915 21.8478 31.2152 21.8478 30.9102C21.8478 28.6992 21.8478 26.4881 21.8478 24.277C21.8478 23.972 21.7711 23.8958 21.4642 23.8958C20.6202 23.8958 19.853 23.8958 19.009 23.8958C18.7021 23.8958 18.5486 23.972 18.6253 24.277C18.7021 25.4207 18.6253 26.4881 18.6253 27.6317ZM26.2212 27.6317C26.2212 26.5643 26.2212 25.4207 26.2212 24.3532C26.2212 24.0483 26.1445 23.972 25.8376 23.972C24.9936 23.972 24.2264 23.972 23.3824 23.972C23.0755 23.972 22.9987 24.0483 22.9987 24.3532C22.9987 26.5643 22.9987 28.7754 22.9987 30.9865C22.9987 31.2915 23.1522 31.3677 23.3824 31.3677C24.1496 31.3677 24.9936 31.3677 25.7609 31.3677C26.0678 31.3677 26.2212 31.2915 26.2212 30.9865C26.1445 29.8428 26.2212 28.6992 26.2212 27.6317ZM17.5512 27.6317C17.5512 26.5643 17.5512 25.4969 17.5512 24.4295C17.5512 24.1245 17.4744 23.972 17.0908 23.972C16.4003 23.972 15.7865 23.972 15.0959 23.972C14.789 23.972 14.7123 24.0483 14.7123 24.3532C14.7123 26.5643 14.7123 28.7754 14.7123 30.9865C14.7123 31.2915 14.789 31.3677 15.0959 31.3677C15.7097 31.3677 16.4003 31.3677 17.0141 31.3677C17.3977 31.3677 17.4744 31.2915 17.4744 30.9102C17.5512 29.7666 17.5512 28.6992 17.5512 27.6317ZM30.0575 27.6317C30.0575 26.5643 30.0575 25.4207 30.0575 24.3532C30.0575 24.0483 29.9808 23.972 29.6739 23.972C28.9834 23.972 28.2928 23.972 27.6023 23.972C27.2954 23.972 27.2187 24.0483 27.2187 24.3532C27.2187 26.5643 27.2187 28.7754 27.2187 30.9865C27.2187 31.2915 27.3721 31.3677 27.6023 31.3677C28.2928 31.3677 28.9067 31.3677 29.5972 31.3677C29.9041 31.3677 30.0575 31.2915 29.9808 30.9865C30.0575 29.8428 30.0575 28.6992 30.0575 27.6317ZM21.8478 19.8548C21.8478 18.9399 21.8478 18.025 21.8478 17.11C21.8478 16.8813 21.7711 16.8051 21.5409 16.8051C20.6969 16.8813 19.7762 17.0338 18.9322 17.2625C18.7021 17.3388 18.6253 17.4913 18.6253 17.72C18.6253 19.3211 18.6253 20.9223 18.6253 22.5234C18.6253 22.8284 18.7021 22.9046 19.009 22.9046C19.853 22.9046 20.6969 22.9046 21.5409 22.9046C21.8478 22.9046 21.9246 22.8284 21.9246 22.5234C21.8478 21.6085 21.8478 20.7698 21.8478 19.8548ZM22.922 19.8548C22.922 20.7698 22.922 21.6085 22.922 22.5234C22.922 22.8284 22.9987 22.9046 23.3056 22.9046C24.1496 22.9046 24.9936 22.9046 25.8376 22.9046C26.1445 22.9046 26.2212 22.8284 26.2212 22.5234C26.2212 20.9223 26.2212 19.3211 26.2212 17.72C26.2212 17.415 26.1445 17.3388 25.8376 17.2625C24.9936 17.0338 24.2264 16.8813 23.3824 16.8051C23.0755 16.8051 22.9987 16.8813 22.9987 17.1863C22.9987 18.1012 22.922 18.9399 22.922 19.8548ZM17.5512 17.72C16.5537 18.1012 15.7865 18.5587 14.9425 19.1686C14.789 19.3211 14.789 19.3974 14.789 19.6261C14.789 20.6173 14.789 21.6085 14.789 22.5234C14.789 22.8284 14.8657 22.9046 15.1726 22.9046C15.8632 22.9046 16.5537 22.9046 17.2443 22.9046C17.5512 22.9046 17.6279 22.8284 17.6279 22.5234C17.5512 20.9223 17.5512 19.3974 17.5512 17.72ZM27.2954 17.72C27.2954 19.3211 27.2954 20.9223 27.2954 22.4471C27.2954 22.7521 27.3721 22.8284 27.679 22.8284C28.3696 22.8284 29.0601 22.8284 29.7506 22.8284C29.9808 22.8284 30.1343 22.7521 30.1343 22.4471C30.1343 21.456 30.1343 20.4648 30.1343 19.5499C30.1343 19.3211 30.0575 19.2449 29.9041 19.0924C29.0601 18.6349 28.2161 18.1012 27.2954 17.72ZM12.7174 14.2128C11.8734 14.2128 11.1829 14.899 11.1829 15.7377C11.1829 16.5763 11.8734 17.2625 12.7941 17.2625C13.6381 17.2625 14.3287 16.5763 14.3287 15.6614C14.2519 14.899 13.5614 14.2128 12.7174 14.2128ZM32.1292 14.2128C31.2852 14.2128 30.5946 14.899 30.5179 15.7377C30.5179 16.5763 31.2084 17.3388 32.0524 17.3388C32.8964 17.3388 33.6637 16.6526 33.6637 15.8139C33.7404 14.899 33.0499 14.2128 32.1292 14.2128Z" fill="#F8F8F8"/>
</g>
<defs>
<linearGradient id="paint0_linear_146_856" x1="22.1676" y1="-18.7022" x2="29.811" y2="49.9668" gradientUnits="userSpaceOnUse">
<stop offset="0.375" stop-color="#FBE049"/>
<stop offset="1" stop-color="#97841B"/>
</linearGradient>
<linearGradient id="paint1_linear_146_856" x1="22.3939" y1="52.7147" x2="22.5097" y2="58.0016" gradientUnits="userSpaceOnUse">
<stop offset="0.375" stop-color="#FBE049"/>
<stop offset="1" stop-color="#97841B"/>
</linearGradient>
<clipPath id="clip0_146_856">
<rect width="45" height="58" fill="white"/>
</clipPath>
</defs>
</svg>
