<svg width="96" height="130" viewBox="0 0 96 130" fill="none" xmlns="http://www.w3.org/2000/svg">
<path d="M94.9988 128.015L89.8164 111.806C87.6112 103.867 87.2804 95.377 88.8241 87.3278C89.0446 86.0046 89.1548 84.6815 89.0446 83.4686L87.5009 66.2674C87.0598 60.8645 85.2956 55.5718 82.539 51.051C80.444 47.5226 77.4669 44.6557 73.8282 42.5607L67.8739 39.1425L67.7637 38.922C66.3302 36.4962 64.2352 34.6217 61.6992 33.4088L57.8399 31.4241L56.5168 27.5648C55.8552 25.4698 54.9731 23.4851 53.9807 21.5003L48.1367 9.70209C47.5854 8.26866 46.3725 7.27628 44.8288 6.83523C43.2851 6.50444 41.7414 6.83523 40.5285 7.8276C38.213 9.81235 37.2206 13.01 38.1027 15.9871L42.7338 31.5343L45.9314 51.4921L46.2622 66.8187C46.2622 67.9214 45.3801 68.3624 45.1596 68.4727C44.9391 68.5829 43.9467 68.8035 43.2851 67.9214C41.8517 66.0469 40.0875 63.6211 38.213 60.8645C31.3766 50.4997 24.3197 51.6023 20.681 53.2563C19.4681 53.8076 18.586 54.9102 18.4758 56.2334C18.2552 57.5566 18.8065 58.7695 19.7989 59.6516C23.9889 63.0698 28.5098 70.4574 30.274 73.5448C31.0458 74.868 31.7074 76.3014 32.2587 77.7348L34.6845 84.2404C37.3309 91.4076 42.0722 97.4721 48.3572 101.772C51.2241 103.757 54.8628 107.175 55.8552 111.806L58.281 128.677C58.3913 129.449 59.0528 130 59.8247 130C59.9349 130 59.9349 130 60.0452 130C60.9273 129.89 61.4786 129.118 61.3684 128.236L58.9426 111.365V111.255C57.8399 105.521 53.5396 101.552 50.2317 99.2363C44.498 95.2668 40.0875 89.7536 37.6617 83.1378L35.2359 76.6322C34.6845 75.0885 33.9127 73.4346 33.0306 72.0011C30.8253 68.0316 26.3045 60.8645 21.8939 57.2258C21.6734 57.0053 21.6734 56.7847 21.6734 56.6745C21.6734 56.5642 21.7837 56.2334 22.1145 56.1231C26.8558 54.0281 31.5971 56.2334 35.7872 62.6287C37.6617 65.6058 39.4259 68.0316 40.9696 69.9061C42.2927 71.5601 44.3877 72.1114 46.3725 71.4498C48.3572 70.7882 49.5701 68.9137 49.5701 66.8187L49.2394 51.3818V51.2715L45.9314 30.983V30.8727L41.1901 15.105C40.6388 13.3408 41.1901 11.356 42.6235 10.2534C43.0646 9.92261 43.6159 9.70209 44.1672 9.92261C44.7185 10.0329 45.1596 10.4739 45.3801 10.915L51.3344 22.9337C52.2165 24.698 52.9883 26.5724 53.6499 28.5572L58.6118 43.4428L61.5889 58.6592C61.8094 59.5413 62.5813 60.0926 63.4634 59.8721C64.3455 59.6516 64.8968 58.8797 64.6763 57.9976L61.5889 42.671V42.5607L59.2734 35.3936L60.4863 35.9449C62.471 36.827 64.0147 38.3707 65.1173 40.2452L68.315 45.7583C68.6458 46.1994 69.0868 46.5302 69.6382 46.5302C69.8587 46.5302 70.1895 46.4199 70.41 46.3097C71.0716 45.8686 71.4024 45.0968 71.0716 44.3249L72.3948 45.0968C75.4821 46.861 78.1285 49.397 79.8927 52.4844C82.4288 56.6745 83.9725 61.5261 84.5238 66.3777L86.0675 83.5788C86.1777 84.5712 86.0675 85.6738 85.9572 86.6662C84.3032 95.2668 84.7443 104.198 87.0598 112.578L92.2422 128.897C92.4628 129.559 93.0141 130 93.6757 130C93.7859 130 94.0065 130 94.1167 129.89C94.7783 129.669 95.2194 128.787 94.9988 128.015Z" fill="white"/>
<path d="M39.0953 19.2949L38.1029 15.987C37.2208 13.0099 38.2132 9.81225 40.5287 7.8275C41.7416 6.83512 43.2853 6.39407 44.829 6.83512C46.3727 7.16591 47.5856 8.26855 48.1369 9.70198L50.7832 14.8844C51.4448 13.5612 51.7756 12.1278 51.7756 10.5841C51.7756 5.40169 47.5856 1.21167 42.4032 1.21167C37.2208 1.21167 33.0308 5.40169 33.0308 10.5841C33.0308 14.6639 35.5668 17.9718 39.0953 19.2949Z" fill="#1DB779"/>
<path d="M70.5201 1.32216C69.5277 0.329787 67.7635 0.329787 66.7711 1.32216C65.7788 2.31454 65.7788 4.07876 66.7711 5.07113L68.9764 7.27641H57.6192C56.1858 7.27641 54.9729 8.48931 54.9729 9.92274C54.9729 11.3562 56.1858 12.5691 57.6192 12.5691H68.9764L66.7711 14.7743C65.7788 15.7667 65.7788 17.5309 66.7711 18.5233C67.7635 19.5157 69.5277 19.5157 70.5201 18.5233L79.2309 9.92274L70.5201 1.32216Z" fill="#1DB779"/>
<path d="M9.65469 18.5233C10.6471 19.5157 12.4113 19.5157 13.4037 18.5233C14.396 17.5309 14.396 15.7667 13.4037 14.7743L11.1984 12.5691H22.5556C23.989 12.5691 25.2019 11.3562 25.2019 9.92274C25.2019 8.48931 23.989 7.27641 22.5556 7.27641H11.1984L13.4037 5.07113C14.396 4.07876 14.396 2.31454 13.4037 1.32216C12.4113 0.329787 10.6471 0.329787 9.65469 1.32216L0.943848 9.92274L9.65469 18.5233Z" fill="#1DB779"/>
</svg>
