<svg width="102" height="132" viewBox="0 0 102 132" fill="none" xmlns="http://www.w3.org/2000/svg">
<path d="M101.075 129.8L93.2749 100.8C93.9749 98.3 97.9749 84.6 99.2749 75.6C100.575 66.9 94.4749 62.4 91.2749 59.9C90.6749 59.5 90.1749 59.1 89.7749 58.8C87.5749 53.5 81.6749 52.7 80.0749 52.5C78.7749 50.2 76.8749 48.2 74.1749 47.5C76.0749 37.9 78.3749 31.2 79.5749 27.9C80.0749 26.7 79.9749 25.3 79.3749 24.2C78.7749 23 77.7749 22.2 76.5749 21.8C74.6749 21.2 72.6749 21.8 71.4749 23.4C65.8749 30.7 62.3749 42.6 59.5749 52.1C58.6749 55.1 57.8749 57.9 57.0749 60.2C55.8749 63.6 54.2749 66.3 52.2749 68.1C51.5749 68.7 50.7749 69 49.8749 68.9C48.9749 68.8 48.1749 68.4 47.5749 67.7C44.9749 64.5 41.7749 60.4 37.5749 58.9C28.1749 55.3 23.9749 58.6 21.6749 61.5C21.0749 62.2 20.8749 63.1 21.1749 64C21.3749 64.9 22.0749 65.6 22.8749 65.9C24.9749 66.7 28.0749 68.6 31.8749 71.2C34.4749 73 36.6749 75.5 38.1749 78.3L38.9749 80.1C39.9749 82.6 41.2749 84.9 42.7749 87C43.9749 88.6 45.2749 90.1 47.1749 91.9L52.2749 96.9C56.3749 100.9 59.1749 106 60.2749 111.6L64.1749 130.5C64.2749 131.2 64.8749 131.6 65.5749 131.6C65.6749 131.6 65.7749 131.6 65.8749 131.6C66.6749 131.4 67.1749 130.7 66.9749 129.9L63.0749 111C61.7749 104.8 58.7749 99.2 54.2749 94.8L49.1749 89.8C47.4749 88.1 46.1749 86.7 45.0749 85.2C43.6749 83.3 42.5749 81.2 41.5749 78.9L40.7749 77L40.6749 76.9C38.8749 73.7 36.3749 70.9 33.4749 68.8C29.4749 66 26.2749 64.1 23.8749 63.1C25.0749 61.6 27.9749 58.1 36.5749 61.4C39.9749 62.7 42.9749 66.4 45.3749 69.4C46.4749 70.7 47.9749 71.5 49.6749 71.7C51.3749 71.8 52.9749 71.3 54.1749 70.2C56.5749 68.1 58.4749 65 59.7749 61.1C60.5749 58.8 61.4749 55.9 62.3749 52.9C65.1749 43.6 68.5749 32 73.8749 25.1C74.3749 24.5 75.1749 24.2 75.8749 24.5C76.3749 24.7 76.7749 25 76.9749 25.5C77.1749 26 77.1749 26.5 77.0749 27C75.3749 31.3 72.9749 38.7 71.1749 49C70.4749 52.6 69.9749 56.3 69.5749 60C69.4749 60.8 70.0749 61.5 70.7749 61.6C71.5749 61.7 72.2749 61.1 72.3749 60.4C72.7749 57 73.2749 53.7 73.7749 50.4C79.0749 52 80.2749 61.9 80.2749 62C80.3749 62.7 80.9749 63.2 81.6749 63.2C81.7749 63.2 81.7749 63.2 81.8749 63.2C82.6749 63.1 83.1749 62.4 83.0749 61.6C83.0749 61.4 82.6749 58.7 81.5749 55.7C83.4749 56.2 86.2749 57.3 87.2749 60.2L87.3749 60.5L87.5749 60.7C88.0749 61.2 88.7749 61.7 89.5749 62.3C92.7749 64.7 97.4749 68.2 96.4749 75.3C95.0749 84.9 90.4749 100.3 90.4749 100.5L90.3749 100.9L98.3749 130.6C98.5749 131.2 99.0749 131.6 99.7749 131.6C99.8749 131.6 99.9749 131.6 100.175 131.6C100.875 131.3 101.275 130.6 101.075 129.8Z" fill="white"/>
<path d="M71.5749 23.4C72.7749 21.9 74.7749 21.2 76.6749 21.8C77.8749 22.2 78.9749 23.1 79.4749 24.2C80.0749 25.4 80.0749 26.7 79.6749 27.9C79.1749 29.1 78.6749 30.7 77.9749 32.8C81.8749 32 84.7749 28.6 84.7749 24.5C84.7749 19.8 80.9749 16 76.2749 16C71.5749 16 67.7749 19.8 67.7749 24.5C67.7749 25.7 68.0749 26.9 68.5749 28C69.5749 26.4 70.5749 24.8 71.5749 23.4Z" fill="#1DB779"/>
<path d="M22.8749 65.7C22.0749 65.4 21.3749 64.6 21.1749 63.8C20.9749 62.9 21.1749 62 21.6749 61.3C23.4749 59.1 26.2749 56.7 31.7749 57.2C30.2749 55 27.6749 53.5 24.7749 53.5C20.0749 53.5 16.2749 57.3 16.2749 62C16.2749 66.7 20.0749 70.5 24.7749 70.5C26.3749 70.5 27.8749 70.1 29.1749 69.3C26.5749 67.5 24.4749 66.3 22.8749 65.7Z" fill="#1DB779"/>
<path d="M5.175 69.3C3.875 69.3 2.775 70.4 2.775 71.7C2.775 73 3.875 74.1 5.175 74.1H7.975L0.675 81.4C-0.225 82.3 -0.225 83.9 0.675 84.8C1.575 85.7 3.175 85.7 4.075 84.8L11.375 77.5V80.3C11.375 81.6 12.475 82.7 13.775 82.7C15.075 82.7 16.175 81.6 16.175 80.3V69.3H5.175Z" fill="#1DB779"/>
<path d="M96.3749 17.1C97.6749 17.1 98.7749 16 98.7749 14.7C98.7749 13.4 97.6749 12.3 96.3749 12.3H93.5749L100.875 5.00005C101.775 4.10005 101.775 2.50005 100.875 1.60005C99.9749 0.700049 98.3749 0.700049 97.4749 1.60005L90.0749 9.00005V6.20005C90.0749 4.90005 88.9749 3.80005 87.6749 3.80005C86.3749 3.80005 85.2749 4.90005 85.2749 6.20005V17.2001L96.3749 17.1Z" fill="#1DB779"/>
</svg>
