<svg width="150" height="142" viewBox="0 0 150 142" fill="none" xmlns="http://www.w3.org/2000/svg">
<path d="M76.4929 68.6807C75.935 68.8653 75.3771 68.8653 74.6332 68.8653C69.0542 68.8653 64.777 64.2512 64.777 58.7143V37.1203C64.777 31.5834 69.2402 26.9693 74.6332 26.9693C75.1911 26.9693 75.935 26.9693 76.4929 27.1539V2.42236C75.935 2.42236 75.3771 2.42236 74.6332 2.42236C49.1559 2.42236 28.6997 23.2781 28.6997 49.3015V79.9391H76.4929V68.6807Z" fill="#1DB779"/>
<path d="M76.2812 81.3877H28.7522C28.0125 81.3877 27.2727 80.8346 27.2727 79.9127V49.3064C27.2727 22.5719 48.3556 1 74.4318 1C74.9866 1 75.7264 1 76.2812 1C77.0209 1 77.5757 1.55313 77.5757 2.475V27.1813C77.5757 27.5501 77.3908 27.9188 77.0209 28.2876C76.6511 28.6563 76.2812 28.6563 75.9113 28.6563C75.3565 28.4719 74.8017 28.4719 74.4318 28.4719C69.8084 28.4719 65.9247 32.3438 65.9247 37.1376V58.7095C65.9247 63.5033 69.8084 67.3752 74.4318 67.3752C74.9866 67.3752 75.3565 67.3752 75.9113 67.1908C76.2812 67.1908 76.6511 67.1908 77.0209 67.5595C77.3908 67.9283 77.5757 68.297 77.5757 68.6658V79.9127C77.5757 80.6502 77.0209 81.3877 76.2812 81.3877ZM30.0468 78.6221H74.8017V70.3252C68.3289 70.5095 63.1506 65.347 63.1506 58.8939V37.1376C63.1506 30.8688 68.1439 25.7063 74.4318 25.7063C74.6167 25.7063 74.6167 25.7063 74.8017 25.7063V3.76563C74.6167 3.76563 74.6167 3.76563 74.4318 3.76563C50.02 3.76563 30.0468 24.2313 30.0468 49.3064V78.6221Z" fill="#F8F8F8" stroke="#F8F8F8" stroke-width="1.5"/>
<path d="M74.4318 140.388C48.3556 140.388 27.2727 118.632 27.2727 92.0815V79.9127C27.2727 79.1752 27.8275 78.4377 28.7522 78.4377H74.9866V68.6658C74.9866 67.9283 75.5414 67.3752 76.0962 67.3752C80.1649 66.6377 83.1239 62.9502 83.1239 58.7095V37.1376C83.1239 32.897 80.1649 29.3938 76.0962 28.4719C75.3565 28.2876 74.9866 27.7344 74.9866 27.1813V2.475C74.9866 2.10625 75.1715 1.7375 75.3565 1.55313C75.5414 1.18438 75.9113 1 76.2812 1C101.618 2.10625 121.591 23.1251 121.591 49.3064V92.0815C121.591 118.632 100.508 140.388 74.4318 140.388ZM30.0468 81.3877V92.0815C30.0468 117.157 50.02 137.622 74.4318 137.622C98.8436 137.622 118.817 117.157 118.817 92.0815V49.3064C118.817 25.3376 100.878 5.60939 77.5757 3.95001V26.0751C82.3841 27.5501 85.713 31.9751 85.713 37.1376V58.7095C85.713 63.872 82.3841 68.297 77.5757 69.772V79.9127C77.5757 80.6502 77.0209 81.3877 76.0962 81.3877H30.0468Z" fill="#F8F8F8" stroke="#F8F8F8" stroke-width="1.5"/>
<path d="M12.1742 57.0842C8.38342 61.1279 4.44686 65.1716 0.656093 69.2153C-0.218698 70.1139 -0.218698 71.4618 0.656093 72.3604C4.44686 76.2543 8.23762 80.1483 12.1742 84.0422C14.2154 86.1389 17.2771 82.8441 15.2359 80.8971C11.4452 77.0032 7.65442 73.1092 3.71786 69.2153C3.71786 70.2637 3.71786 71.312 3.71786 72.3604C7.65442 68.3167 11.4452 64.273 15.2359 60.2293C17.1313 58.1325 14.0696 54.9874 12.1742 57.0842Z" fill="#F8F8F8"/>
<path d="M137.826 57.0842C141.617 61.1279 145.553 65.1716 149.344 69.2153C150.219 70.1139 150.219 71.4618 149.344 72.3604C145.553 76.2543 141.762 80.1483 137.826 84.0422C135.785 86.1389 132.723 82.8441 134.764 80.8971C138.555 77.0032 142.346 73.1092 146.282 69.2153C146.282 70.2637 146.282 71.312 146.282 72.3604C142.346 68.3167 138.555 64.273 134.764 60.2293C132.869 58.1325 135.93 54.9874 137.826 57.0842Z" fill="#F8F8F8"/>
</svg>
