<svg width="30" height="31" viewBox="0 0 30 31" fill="none" xmlns="http://www.w3.org/2000/svg">
<path d="M7.5 29.25C6.80964 29.25 6.25 28.6904 6.25 28C6.25 27.3096 6.80964 26.75 7.5 26.75C8.19036 26.75 8.75 27.3096 8.75 28C8.75 28.6904 8.19036 29.25 7.5 29.25Z" fill="#F8F8F8"/>
<path d="M22.5 4.25C21.8096 4.25 21.25 3.69036 21.25 3C21.25 2.30964 21.8096 1.75 22.5 1.75C23.1904 1.75 23.75 2.30964 23.75 3C23.75 3.69036 23.1904 4.25 22.5 4.25Z" fill="#F8F8F8"/>
<path d="M27.5 9.25C26.8096 9.25 26.25 8.69036 26.25 8C26.25 7.30964 26.8096 6.75 27.5 6.75C28.1904 6.75 28.75 7.30964 28.75 8C28.75 8.69036 28.1904 9.25 27.5 9.25Z" fill="#F8F8F8"/>
<path fill-rule="evenodd" clip-rule="evenodd" d="M27.8934 19.2442C28.4755 19.4614 28.7712 20.1094 28.554 20.6915C27.1467 24.4621 24.2252 27.4908 20.5286 29.0378C19.9554 29.2776 19.2963 29.0075 19.0565 28.4343C18.8166 27.8611 19.0868 27.2021 19.66 26.9622C22.7843 25.6547 25.2565 23.0918 26.446 19.9048C26.6633 19.3227 27.3113 19.0269 27.8934 19.2442Z" fill="#F8F8F8"/>
<path fill-rule="evenodd" clip-rule="evenodd" d="M11.276 2.6058C11.4937 3.18773 11.1984 3.83596 10.6165 4.05367C7.41193 5.25257 4.83841 7.75363 3.54064 10.9133C3.30458 11.488 2.64731 11.7626 2.07258 11.5265C1.49785 11.2905 1.2233 10.6332 1.45936 10.0585C2.99418 6.32163 6.03498 3.36541 9.82809 1.94633C10.41 1.72861 11.0583 2.02387 11.276 2.6058Z" fill="#F8F8F8"/>
<path d="M2.5 24.25C1.80964 24.25 1.25 23.6904 1.25 23C1.25 22.3096 1.80964 21.75 2.5 21.75C3.19036 21.75 3.75 22.3096 3.75 23C3.75 23.6904 3.19036 24.25 2.5 24.25Z" fill="#F8F8F8"/>
<path d="M9.5 15.5L15 21M15 21L20.5 15.5M15 21L15 10" stroke="#F8F8F8" stroke-width="3" stroke-linecap="round" stroke-linejoin="round"/>
</svg>
