<svg width="30" height="31" viewBox="0 0 30 31" fill="none" xmlns="http://www.w3.org/2000/svg">
<path d="M25.22 12.5854C25.22 12.0331 24.7723 11.5854 24.22 11.5854C23.6677 11.5854 23.22 12.0331 23.22 12.5854H24.22H25.22ZM5.77999 12.5854C5.77999 12.0331 5.33227 11.5854 4.77999 11.5854C4.2277 11.5854 3.77999 12.0331 3.77999 12.5854H4.77999H5.77999ZM17.851 26.6258L17.6302 25.6504L17.6302 25.6504L17.851 26.6258ZM11.149 26.6258L11.3698 25.6504L11.3698 25.6504L11.149 26.6258ZM18.2712 6.57374L17.5768 7.29327L17.5768 7.29327L18.2712 6.57374ZM25.8055 15.2353C26.2029 15.6188 26.836 15.6076 27.2195 15.2102C27.6031 14.8128 27.5918 14.1797 27.1945 13.7962L26.5 14.5157L25.8055 15.2353ZM10.7288 6.57374L11.4232 7.29327L11.4232 7.29327L10.7288 6.57374ZM1.80554 13.7962C1.40815 14.1797 1.39693 14.8128 1.78047 15.2102C2.16401 15.6076 2.79707 15.6188 3.19446 15.2353L2.5 14.5157L1.80554 13.7962ZM11.4579 18.4648L10.4765 18.2726L10.4765 18.2726L11.4579 18.4648ZM11.4837 18.3332L12.465 18.5254L12.465 18.5254L11.4837 18.3332ZM17.5163 18.3332L16.535 18.5254L16.535 18.5254L17.5163 18.3332ZM17.5421 18.4648L18.5235 18.2726L18.5235 18.2726L17.5421 18.4648ZM17.1557 26.4274L18.0514 26.8722L18.0514 26.8722L17.1557 26.4274ZM16.1044 26.2962C15.8587 26.7909 16.0606 27.391 16.5552 27.6366C17.0499 27.8823 17.65 27.6804 17.8956 27.1857L17 26.741L16.1044 26.2962ZM11.8443 26.4274L10.9486 26.8722L10.9487 26.8722L11.8443 26.4274ZM11.1044 27.1857C11.35 27.6804 11.9501 27.8823 12.4448 27.6366C12.9394 27.391 13.1413 26.7908 12.8956 26.2962L12 26.741L11.1044 27.1857ZM13.6481 16.0655L13.3911 15.0991L13.3911 15.0991L13.6481 16.0655ZM15.3519 16.0655L15.6089 15.0991L15.6089 15.0991L15.3519 16.0655ZM24.22 12.5854H23.22V18.87H24.22H25.22V12.5854H24.22ZM4.77999 18.87H5.77999V12.5854H4.77999H3.77999V18.87H4.77999ZM17.851 26.6258L17.6302 25.6504C15.5715 26.1165 13.4285 26.1165 11.3698 25.6504L11.149 26.6258L10.9282 27.6011C13.2776 28.133 15.7223 28.133 18.0718 27.6011L17.851 26.6258ZM11.149 26.6258L11.3698 25.6504C9.44386 25.2144 8.14194 24.8694 7.24967 24.032C6.41715 23.2506 5.77999 21.8588 5.77999 18.87H4.77999H3.77999C3.77999 22.0946 4.46177 24.1583 5.88097 25.4903C7.24042 26.7662 9.12299 27.1924 10.9282 27.6011L11.149 26.6258ZM17.851 26.6258L18.0718 27.6011C19.877 27.1924 21.7596 26.7662 23.119 25.4903C24.5382 24.1583 25.22 22.0946 25.22 18.87H24.22H23.22C23.22 21.8588 22.5828 23.2506 21.7503 24.032C20.858 24.8694 19.5561 25.2144 17.6302 25.6504L17.851 26.6258ZM18.2712 6.57374L17.5768 7.29327L25.8055 15.2353L26.5 14.5157L27.1945 13.7962L18.9657 5.8542L18.2712 6.57374ZM10.7288 6.57374L10.0343 5.8542L1.80554 13.7962L2.5 14.5157L3.19446 15.2353L11.4232 7.29327L10.7288 6.57374ZM18.2712 6.57374L18.9657 5.8542C18.0969 5.01567 17.375 4.316 16.7261 3.8382C16.0528 3.34241 15.3481 3 14.5 3V4V5C14.7565 5 15.0485 5.08655 15.5402 5.44867C16.0564 5.82878 16.6678 6.41597 17.5768 7.29327L18.2712 6.57374ZM10.7288 6.57374L11.4232 7.29327C12.3322 6.41597 12.9436 5.82878 13.4598 5.44867C13.9515 5.08655 14.2435 5 14.5 5V4V3C13.6519 3 12.9472 3.34241 12.2739 3.8382C11.625 4.316 10.9031 5.01567 10.0343 5.8542L10.7288 6.57374ZM11.4579 18.4648L12.4393 18.657L12.465 18.5254L11.4837 18.3332L10.5023 18.141L10.4765 18.2726L11.4579 18.4648ZM17.5163 18.3332L16.535 18.5254L16.5608 18.6571L17.5421 18.4648L18.5235 18.2726L18.4977 18.141L17.5163 18.3332ZM17.1557 26.4274L16.2601 25.9827L16.1044 26.2962L17 26.741L17.8956 27.1857L18.0514 26.8722L17.1557 26.4274ZM11.8443 26.4274L10.9487 26.8722L11.1044 27.1857L12 26.741L12.8956 26.2962L12.7399 25.9827L11.8443 26.4274ZM17.5421 18.4648L16.5608 18.657C16.5869 18.7907 16.6162 19.2557 16.6235 20.0016C16.6304 20.7064 16.6177 21.5727 16.5856 22.4389C16.5534 23.3066 16.5022 24.161 16.4334 24.8451C16.3989 25.1881 16.3613 25.4753 16.3221 25.6941C16.2771 25.9453 16.2456 26.0117 16.2601 25.9827L17.1557 26.4274L18.0514 26.8722C18.1758 26.6215 18.2449 26.3031 18.2908 26.0467C18.3425 25.7578 18.3862 25.4147 18.4234 25.0451C18.4979 24.3041 18.5512 23.4043 18.5842 22.513C18.6174 21.6201 18.6306 20.7223 18.6234 19.9821C18.6166 19.2829 18.5919 18.6219 18.5235 18.2726L17.5421 18.4648ZM11.4579 18.4648L10.4765 18.2726C10.4081 18.6219 10.3834 19.2829 10.3766 19.9821C10.3694 20.7223 10.3826 21.6201 10.4158 22.513C10.4488 23.4043 10.5021 24.3041 10.5766 25.0451C10.6138 25.4147 10.6575 25.7578 10.7092 26.0467C10.7551 26.3031 10.8242 26.6215 10.9486 26.8722L11.8443 26.4274L12.7399 25.9827C12.7544 26.0117 12.7229 25.9453 12.6779 25.6941C12.6387 25.4753 12.6011 25.1881 12.5666 24.8451C12.4978 24.161 12.4466 23.3066 12.4144 22.4389C12.3823 21.5727 12.3696 20.7064 12.3765 20.0016C12.3838 19.2557 12.4131 18.7907 12.4393 18.657L11.4579 18.4648ZM13.6481 16.0655L13.9051 17.0319C14.2942 16.9284 14.7058 16.9284 15.0949 17.0319L15.3519 16.0655L15.6089 15.0991C14.8829 14.906 14.1171 14.906 13.3911 15.0991L13.6481 16.0655ZM17.5163 18.3332L18.4977 18.141C18.2072 16.6578 17.074 15.4887 15.6089 15.0991L15.3519 16.0655L15.0949 17.0319C15.8512 17.233 16.3975 17.8234 16.535 18.5254L17.5163 18.3332ZM11.4837 18.3332L12.465 18.5254C12.6025 17.8234 13.1488 17.233 13.9051 17.0319L13.6481 16.0655L13.3911 15.0991C11.926 15.4887 10.7928 16.6578 10.5023 18.141L11.4837 18.3332Z" fill="#F8F8F8"/>
</svg>
