<svg width="33" height="33" viewBox="0 0 33 33" fill="none" xmlns="http://www.w3.org/2000/svg">
<path d="M0 10.5C0 4.97715 4.47715 0.5 10 0.5H23C28.5228 0.5 33 4.97715 33 10.5V22.5C33 28.0228 28.5228 32.5 23 32.5H10C4.47715 32.5 0 28.0228 0 22.5V10.5Z" fill="#FBE049"/>
<path d="M0 10.5C0 4.97715 4.47715 0.5 10 0.5H23C28.5228 0.5 33 4.97715 33 10.5V22.5C33 28.0228 28.5228 32.5 23 32.5H10C4.47715 32.5 0 28.0228 0 22.5V10.5Z" fill="url(#paint0_linear_2001_998)"/>
<path d="M20.3261 19.3803C20.038 19.3803 19.7499 19.3803 19.6059 19.2363C19.1737 19.0922 18.7415 18.9482 18.1653 18.66C17.0129 18.2279 15.7164 18.2279 14.564 18.66C12.2592 19.6684 12.6913 19.6684 10.3865 18.8041C9.66621 18.516 9.66621 18.516 9.81026 17.6517C10.5305 14.6266 13.5556 12.4658 16.7248 12.6098C19.894 12.7539 22.631 15.0587 23.2072 18.2279C23.2072 18.516 23.2072 18.516 22.9191 18.66C22.3429 18.8041 21.7666 19.0922 21.1904 19.2363C20.9023 19.3803 20.6142 19.3803 20.3261 19.3803Z" fill="#F8F8F8"/>
<path d="M8.65783 19.2358C9.3781 19.2358 10.0984 19.5239 10.8186 19.8121C11.971 20.3883 13.1235 20.3883 14.2759 19.8121C15.1402 19.3799 16.1486 19.0918 17.157 19.3799C17.8772 19.5239 18.4534 19.8121 19.1737 20.1002C20.038 20.3883 20.7583 20.5323 21.6226 20.1002C23.4953 19.2358 25.368 19.2358 27.2407 20.1002C27.3847 20.1002 27.5288 20.2442 27.6728 20.2442C27.9609 20.3883 28.105 20.6764 27.9609 20.9645C27.8169 21.2526 27.5288 21.3966 27.2407 21.3966C26.6644 21.2526 26.2323 21.1085 25.8001 20.8204C24.9358 20.5323 24.2155 20.5323 23.3512 20.8204C22.9191 20.9645 22.4869 21.1085 22.0548 21.2526C21.0464 21.6847 20.038 21.5407 19.0296 21.2526C16.2926 20.2442 16.5807 20.2442 13.9878 21.1085C12.9794 21.5407 11.971 21.5407 10.9627 21.1085C8.51378 20.2442 8.65783 20.2442 6.20894 21.1085C6.06488 21.1085 5.92083 21.2526 5.77678 21.2526C5.48867 21.3966 5.20057 21.2526 5.05651 20.8204C4.91246 20.5323 5.05651 20.2442 5.34462 20.1002C6.49704 19.8121 7.50541 19.2358 8.65783 19.2358Z" fill="#F8F8F8"/>
<path d="M8.51375 21.973C9.52212 21.973 10.3864 22.4052 11.2508 22.6933C11.971 22.9814 12.8353 22.9814 13.5556 22.6933C13.9878 22.5493 14.4199 22.4052 14.8521 22.2611C15.8604 21.973 16.7248 21.973 17.7331 22.2611C18.1653 22.4052 18.5974 22.5493 19.1737 22.6933C19.8939 22.9814 20.6142 22.9814 21.4785 22.6933C22.1988 22.4052 22.775 22.1171 23.4952 21.973C24.2155 21.829 24.7917 21.829 25.512 22.1171C25.9441 22.2611 26.2322 22.5493 26.0882 22.9814C25.9441 23.4136 25.656 23.5576 25.2239 23.4136C24.5036 23.2695 23.9274 23.2695 23.2071 23.5576C22.775 23.7017 22.1988 23.9898 21.7666 24.1338C20.9023 24.4219 19.8939 24.4219 19.0296 24.1338C18.5974 23.9898 18.0212 23.8457 17.5891 23.5576C16.8688 23.2695 16.0045 23.2695 15.2842 23.5576C14.564 23.8457 13.8437 24.1338 13.1234 24.2779C12.4032 24.4219 11.827 24.2779 11.1067 24.1338C10.6745 23.9898 10.0983 23.8457 9.66617 23.5576C9.08996 23.2695 8.36969 23.2695 7.64943 23.4136C7.21727 23.5576 6.92916 23.4136 6.78511 23.1255C6.64106 22.6933 6.78511 22.4052 7.36132 22.2611C7.79348 21.973 8.08159 21.973 8.51375 21.973Z" fill="#F8F8F8"/>
<path d="M7.07335 17.7955C6.78525 17.7955 6.35309 17.7955 6.06498 17.7955C5.63282 17.7955 5.48877 17.5074 5.48877 17.2193C5.48877 16.7871 5.77688 16.6431 6.06498 16.6431C6.78525 16.6431 7.36146 16.6431 8.08172 16.7871C8.51388 16.7871 8.65793 17.0752 8.65793 17.5074C8.65793 17.9395 8.36983 18.0836 7.93767 18.0836C7.79362 17.9395 7.50551 17.9395 7.07335 17.7955Z" fill="#F8F8F8"/>
<path d="M25.6561 17.9396C25.368 17.9396 24.9359 17.9396 24.6477 17.9396C24.2156 17.9396 24.0715 17.7955 24.0715 17.3633C24.0715 16.9312 24.2156 16.7871 24.6477 16.6431C25.368 16.6431 26.0883 16.499 26.8085 16.499C27.0966 16.499 27.3847 16.7871 27.3847 17.0752C27.3847 17.3633 27.0966 17.6514 26.8085 17.6514C26.3764 17.7955 26.0883 17.7955 25.6561 17.9396Z" fill="#F8F8F8"/>
<path d="M17.0129 9.58458C17.0129 9.87269 17.0129 10.1608 17.0129 10.4489C17.0129 10.8811 16.7248 11.1692 16.4367 11.1692C16.1486 11.1692 15.8605 10.8811 15.8605 10.4489C15.8605 9.87269 15.8605 9.15242 15.8605 8.57621C15.8605 8.28811 16.0045 8 16.4367 8C16.8688 8 17.0129 8.28811 17.0129 8.72026C17.0129 9.00837 17.0129 9.29648 17.0129 9.58458Z" fill="#F8F8F8"/>
<path d="M11.1067 12.4658C11.1067 12.7539 10.9626 12.898 10.8186 13.0421C10.5305 13.1861 10.3864 13.1861 10.0983 13.0421C9.66616 12.6099 9.08995 12.1777 8.65779 11.6015C8.36969 11.3134 8.51374 11.0253 8.65779 10.7372C8.9459 10.4491 9.234 10.4491 9.37806 10.5932C9.95427 11.0253 10.3864 11.6015 10.8186 12.0337C11.1067 12.3218 11.1067 12.4658 11.1067 12.4658Z" fill="#F8F8F8"/>
<path d="M24.3597 11.3136C24.3597 11.4577 24.2156 11.6017 24.2156 11.7458C23.7835 12.1779 23.3513 12.6101 22.9192 12.8982C22.631 13.1863 22.1989 13.1863 21.9108 12.8982C21.6227 12.6101 21.6227 12.322 21.9108 12.0339C22.3429 11.6017 22.7751 11.1696 23.2073 10.7374C23.3513 10.5934 23.6394 10.4493 23.9275 10.5934C24.2156 10.7374 24.3597 11.0255 24.3597 11.3136Z" fill="#F8F8F8"/>
<defs>
<linearGradient id="paint0_linear_2001_998" x1="16.2537" y1="-11.2895" x2="20.4094" y2="32.1366" gradientUnits="userSpaceOnUse">
<stop offset="0.375" stop-color="#FBE049"/>
<stop offset="1" stop-color="#97841B"/>
</linearGradient>
</defs>
</svg>
