<svg width="142" height="177" viewBox="0 0 142 177" fill="none" xmlns="http://www.w3.org/2000/svg">
<path d="M70.9025 19.3977C44.1969 19.3977 22.3645 40.9694 22.3645 67.7882V112.098C22.3645 130.754 33.0858 147.079 48.4854 155.047C55.113 158.545 62.7154 160.488 70.7076 160.488C97.4132 160.488 119.246 138.916 119.246 112.098V67.7882C119.441 40.9694 97.8031 19.3977 70.9025 19.3977ZM118.076 111.903C118.076 137.75 97.0234 158.739 71.0974 158.739C63.4951 158.739 56.2826 156.99 49.46 153.492C33.8655 145.33 24.1189 129.394 24.1189 111.903V67.7882C24.1189 41.9411 45.1715 20.9524 71.0974 20.9524C97.0234 20.9524 118.076 41.9411 118.076 67.7882V111.903Z" fill="#F8F8F8" stroke="#F8F8F8" stroke-width="1.5"/>
<path d="M70.9026 21.5352V97.3275" stroke="#F8F8F8" stroke-width="3" stroke-linecap="round"/>
<path d="M70.9023 87.999C65.0543 87.999 60.376 83.3349 60.376 77.5047V55.1557C60.376 49.3255 65.0543 44.6614 70.9023 44.6614C76.7502 44.6614 81.4286 49.3255 81.4286 55.1557V77.5047C81.4286 83.3349 76.7502 87.999 70.9023 87.999Z" fill="#1DB779"/>
<path d="M70.9026 89.5538C64.2749 89.5538 59.0117 84.3066 59.0117 77.6991V55.1557C59.0117 48.5482 64.2749 43.301 70.9026 43.301C77.5302 43.301 82.7934 48.5482 82.7934 55.1557V77.5047C82.9883 84.1123 77.5302 89.5538 70.9026 89.5538ZM70.9026 46.2161C65.8343 46.2161 61.9357 50.2972 61.9357 55.1557V77.5047C61.9357 82.5576 66.0293 86.4443 70.9026 86.4443C75.7759 86.4443 79.8694 82.3632 79.8694 77.5047V55.1557C80.0644 50.2972 75.9708 46.2161 70.9026 46.2161Z" fill="#F8F8F8" stroke="#F8F8F8" stroke-width="1.5"/>
<path d="M7.62744 63.7692C7.62744 29.9231 36.1094 2.43591 71.1016 2.43591" stroke="#F8F8F8" stroke-width="3" stroke-miterlimit="10" stroke-linecap="round" stroke-linejoin="round"/>
<path d="M134.576 114.231C134.576 148.077 106.094 175.359 71.1018 175.359" stroke="#F8F8F8" stroke-width="3" stroke-miterlimit="10" stroke-linecap="round" stroke-linejoin="round"/>
<path d="M128.317 109.357C130.173 107.689 132.029 105.957 133.886 104.289C134.298 103.904 134.917 103.904 135.329 104.289C137.116 105.957 138.904 107.625 140.691 109.357C141.653 110.255 140.141 111.602 139.247 110.704C137.46 109.036 135.673 107.368 133.886 105.636C134.367 105.636 134.848 105.636 135.329 105.636C133.473 107.368 131.617 109.036 129.761 110.704C128.799 111.538 127.355 110.191 128.317 109.357Z" fill="#F8F8F8" stroke="#F8F8F8" stroke-width="1.5"/>
<path d="M13.6826 68.6434C11.8266 70.3113 9.97054 72.0434 8.1145 73.7113C7.70204 74.0962 7.08336 74.0962 6.67091 73.7113C4.88361 72.0434 3.09631 70.3754 1.30901 68.6434C0.346623 67.7452 1.85895 66.3981 2.7526 67.2962C4.5399 68.9641 6.3272 70.6321 8.1145 72.3641C7.6333 72.3641 7.15211 72.3641 6.67091 72.3641C8.52695 70.6321 10.383 68.9641 12.239 67.2962C13.2014 66.4622 14.645 67.8094 13.6826 68.6434Z" fill="#F8F8F8" stroke="#F8F8F8" stroke-width="1.5"/>
</svg>
