<svg width="99" height="138" viewBox="0 0 99 138" fill="none" xmlns="http://www.w3.org/2000/svg">
<path d="M67.8001 35.2998C68.3001 34.2998 69.2 33.6998 70.2 33.3998C71.2 33.0998 72.3001 33.1998 73.3001 33.7998C75.1001 34.7998 75.8001 36.9998 75.0001 38.8998C74.6001 39.6998 74.1 40.7998 73.6 41.9998C76.6 41.4998 79.1001 38.9998 79.3001 35.7998C79.6001 31.9998 76.8001 28.7998 73.0001 28.4998C69.2001 28.1998 66 30.9998 65.7 34.7998C65.6 35.9998 65.8001 37.1998 66.3001 38.1998L67.8001 35.2998Z" fill="#1DB779"/>
<path d="M73.3 32.7998C71.2 31.6998 68.5 32.3998 67.3 34.3998C66.3 35.9998 65 38.1998 63.5 40.6998C59.7 47.0998 54.8 55.2998 51.1 60.4998C53.8 50.3998 59.9 31.9998 62.4 25.1998C63.3 22.7998 62.2 20.0998 59.9 18.9998C58.7 18.3998 57.3 18.3998 56.1 18.7998C54.8 19.2998 53.9 20.1998 53.3 21.3998L40.9 49.5998C38.2 48.1998 33.6 47.5998 29.6 52.2998L29.5 52.3998C28.1 52.4998 21 53.1998 17.2 62.9998C16.8 63.8998 16.5 64.7998 16.1 65.6998C14.5 69.6998 13.2 73.0998 12.1 76.0998C10.5 80.6998 9.89997 85.3998 10.2 90.1998C10.5 95.1998 10.7 101.6 10.8 102.9L0.99997 135.5C0.79997 136.2 1.19997 137 1.89997 137.3C1.99997 137.3 2.19997 137.4 2.29997 137.4C2.89997 137.4 3.49997 137 3.59997 136.4L13.5 103.3V103.1C13.5 103 13.3 95.6998 12.9 90.0998C12.6 85.6998 13.2 81.2998 14.6 77.0998C15.6 74.0998 17 70.6998 18.5 66.7998C18.8 65.8998 19.2 64.9998 19.6 64.0998C21.8 58.4998 25.2 56.4998 27.4 55.7998C26.2 57.9998 25.5 59.5998 25.4 59.6998C25.1 60.3998 25.4 61.1998 26.1 61.5998C26.3 61.6998 26.5 61.6998 26.7 61.6998C27.2 61.6998 27.8 61.3998 28 60.8998C28 60.8998 29.4 57.6998 31.7 54.2998C34.9 50.4998 38.2 51.5998 39.6 52.3998L36.3 59.7998C35.3 62.0998 33.7 64.0998 31.8 65.6998L30.1 67.0998C29.5 67.5998 29.4 68.4998 29.9 69.0998C30.4 69.6998 31.3 69.7998 31.9 69.2998L33.6 67.8998C35.9 65.9998 37.7 63.6998 38.9 60.9998L55.7 22.8998C55.9 22.3998 56.4 21.9998 56.9 21.7998C57.4 21.5998 58 21.5998 58.6 21.8998C59.6 22.3998 60.1 23.4998 59.7 24.4998C56.6 32.7998 48.8 56.5998 47.2 64.5998C47 65.3998 47.4 66.1998 48.2 66.5998C48.9 66.9998 49.8 66.7998 50.4 66.1998C54.3 61.9998 61 50.6998 65.9 42.3998C67.4 39.8998 68.7 37.6998 69.7 36.0998C70.2 35.2998 71.2 35.0998 72 35.4998C72.8 35.8998 73.1 36.8998 72.7 37.6998C71.7 39.8998 70.2 43.5998 68.6 47.5998C66.1 53.5998 63.4 60.4998 61.5 64.0998C57.2 72.2998 57.1 78.9998 57.1 79.2998C57.1 80.0998 57.7 80.6998 58.5 80.6998C59.3 80.6998 59.9 80.0998 59.9 79.2998C59.9 79.1998 60 72.8998 64 65.3998C64.6 64.1998 65.3 62.6998 66.1 60.9998C67.1 60.5998 67.5 60.6998 67.6 60.6998C67.7 60.7998 67.8 61.1998 67.7 61.5998C66.4 65.7998 66.7 71.8998 67.3 76.2998C67.6 78.4998 67.3 80.7998 66.7 82.8998L64.3 90.3998C62.9 94.5998 60.1 98.2998 56.4 100.7L47.4 106.5H47.3C43.4 109.3 39.5 112.5 38.2 117.6L34.8 135.8C34.7 136.6 35.2 137.3 35.9 137.4C36 137.4 36.1 137.4 36.2 137.4C36.9 137.4 37.5 136.9 37.6 136.2L40.9 118.1C41.9 113.9 45.2 111.3 48.8 108.7L57.8 102.9C62.1 100.1 65.3 95.9998 66.8 91.0998L69.2 83.5998C70 81.0998 70.3 78.3998 70 75.7998C69.6 72.4998 69.1 66.2998 70.3 62.2998C70.7 61.0998 70.5 59.3998 69.3 58.3998C68.9 57.9998 68.2 57.6998 67.4 57.6998C68.6 54.7998 70 51.4998 71.2 48.4998C72.8 44.5998 74.3 40.7998 75.3 38.6998C76.3 36.4998 75.4 33.9998 73.3 32.7998Z" fill="white"/>
<path d="M53.3 21.4999C53.9 20.2999 54.9 19.3999 56.1 18.8999C57.4 18.3999 58.7 18.4999 59.9 19.0999C62.2 20.1999 63.3 22.8999 62.4 25.2999C62 26.3999 61.5 27.6999 61 29.2999C64.7 28.3999 67.5 25.0999 67.5 21.0999C67.5 16.3999 63.7 12.5999 59 12.5999C54.3 12.5999 50.5 16.3999 50.5 21.0999C50.5 22.5999 50.9 23.9999 51.6 25.1999L53.3 21.4999Z" fill="#1DB779"/>
<path d="M82.0999 31.4998L86.6999 41.4998L96.7999 36.8998C97.9999 36.2998 98.5999 34.8998 97.9999 33.6998C97.4999 32.4998 95.9999 31.9998 94.7999 32.4998L92.1999 33.6998L87.6999 31.9998L86.4999 29.3998C85.9999 28.1998 84.4999 27.6998 83.2999 28.1998C82.0999 28.8998 81.4999 30.2998 82.0999 31.4998Z" fill="#1DB779"/>
<path d="M90.4 11.2998C83.3 -0.000229836 68.3 -3.40023 57 3.79977C56.8 3.99977 56.5 4.09977 56.3 4.29977C55.1 5.09977 54.9 6.89977 56 7.99977C56.8 8.79977 58.1 8.89977 59.1 8.29977C59.3 8.19977 59.5 8.09977 59.6 7.89977C68.6 2.19977 80.5 4.89977 86.2 13.8998C90.6 20.7998 90 29.3998 85.4 35.6998L88.2 40.0998C95.1 32.0998 96.2 20.4998 90.4 11.2998Z" fill="#1DB779"/>
</svg>
