<svg width="99" height="166" viewBox="0 0 99 166" fill="none" xmlns="http://www.w3.org/2000/svg">
<path d="M49.4031 23.3977C22.8755 23.3977 1.18872 44.9694 1.18872 71.7882V116.098C1.18872 134.754 11.8385 151.079 27.1354 159.047C33.7189 162.545 41.2706 164.488 49.2095 164.488C75.7371 164.488 97.4239 142.916 97.4239 116.098V71.7882C97.6176 44.9694 76.1244 23.3977 49.4031 23.3977ZM96.2621 115.903C96.2621 141.75 75.3499 162.739 49.5968 162.739C42.0451 162.739 34.8807 160.99 28.1036 157.492C12.613 149.33 2.93141 133.394 2.93141 115.903V71.7882C2.93141 45.9411 23.8437 24.9524 49.5968 24.9524C75.3499 24.9524 96.2621 45.9411 96.2621 71.7882V115.903Z" fill="#F8F8F8" stroke="#F8F8F8" stroke-width="1.5"/>
<path d="M49.4033 25.5352V101.327" stroke="#F8F8F8" stroke-width="2" stroke-linecap="round"/>
<path d="M49.4029 91.999C43.594 91.999 38.9468 87.3349 38.9468 81.5047V59.1557C38.9468 53.3255 43.594 48.6614 49.4029 48.6614C55.2119 48.6614 59.8591 53.3255 59.8591 59.1557V81.5047C59.8591 87.3349 55.2119 91.999 49.4029 91.999Z" fill="#1DB779"/>
<path d="M49.4034 93.5538C42.8199 93.5538 37.5918 88.3066 37.5918 81.6991V59.1557C37.5918 52.5482 42.8199 47.301 49.4034 47.301C55.9869 47.301 61.2149 52.5482 61.2149 59.1557V81.5047C61.4086 88.1123 55.9869 93.5538 49.4034 93.5538ZM49.4034 50.2161C44.3689 50.2161 40.4963 54.2972 40.4963 59.1557V81.5047C40.4963 86.5576 44.5626 90.4443 49.4034 90.4443C54.2442 90.4443 58.3104 86.3632 58.3104 81.5047V59.1557C58.5041 54.2972 54.4378 50.2161 49.4034 50.2161Z" fill="#F8F8F8" stroke="#F8F8F8" stroke-width="1.5"/>
<path d="M36 15.4747C36 7.68526 42.0902 1.47473 49.5 1.47473C57.0113 1.47473 63 7.79052 63 15.4747" stroke="#F8F8F8" stroke-width="2.5" stroke-linecap="round"/>
<path d="M43 15.4747C43 11.6091 46.1343 8.47473 50 8.47473C53.8657 8.47473 57 11.6091 57 15.4747" stroke="#F8F8F8" stroke-width="2.5" stroke-linecap="round"/>
</svg>
