<svg width="34" height="33" viewBox="0 0 34 33" fill="none" xmlns="http://www.w3.org/2000/svg">
<path d="M0.5 10.5C0.5 4.97715 4.97715 0.5 10.5 0.5H23.5C29.0228 0.5 33.5 4.97715 33.5 10.5V22.5C33.5 28.0228 29.0228 32.5 23.5 32.5H10.5C4.97715 32.5 0.5 28.0228 0.5 22.5V10.5Z" fill="#499CFB"/>
<path d="M0.5 10.5C0.5 4.97715 4.97715 0.5 10.5 0.5H23.5C29.0228 0.5 33.5 4.97715 33.5 10.5V22.5C33.5 28.0228 29.0228 32.5 23.5 32.5H10.5C4.97715 32.5 0.5 28.0228 0.5 22.5V10.5Z" fill="url(#paint0_linear_2001_1036)"/>
<path d="M11.8061 7.07544C11.9753 7.07544 12.1444 7.16064 12.229 7.33105C12.4828 7.75706 12.8211 8.09786 13.1594 8.43867C13.9206 8.94988 14.5972 9.03508 15.2738 8.52387C15.7813 8.26827 16.1196 7.84226 16.4579 7.41625C16.7962 6.99024 17.0499 6.99024 17.3882 7.41625C17.7265 7.84226 18.1494 8.26827 18.5723 8.52387C19.3335 9.03508 20.0101 8.94988 20.6867 8.35347C21.025 8.09786 21.3633 7.67185 21.6171 7.33105C21.8708 6.90504 22.1245 6.90504 22.5474 7.24584C23.3932 8.09786 24.3235 9.03508 25.1693 9.8871C25.423 10.1427 25.5076 10.3983 25.2539 10.6539C24.4081 11.7615 24.3235 13.0396 24.4927 14.3176C24.6619 15.5104 25.0002 16.7032 25.0847 17.8961C25.2539 19.6853 24.6619 21.2189 23.3932 22.4118C22.2937 23.5194 20.9405 24.2862 19.5872 24.8826C18.826 25.2234 17.9803 25.5642 17.1345 25.8198C16.9653 25.905 16.7962 25.905 16.7116 25.8198C15.0201 25.2234 13.4131 24.5418 11.8907 23.6046C11.1295 23.0934 10.4529 22.497 9.86086 21.8154C8.84593 20.5373 8.50763 19.0037 8.76136 17.4701C8.93051 16.3624 9.18424 15.1696 9.3534 14.062C9.52255 12.784 9.3534 11.6763 8.5922 10.6539C8.42305 10.4835 8.50763 10.2279 8.67678 10.0575C9.60713 9.12028 10.5375 8.18306 11.4678 7.24584C11.5524 7.16064 11.637 7.07544 11.8061 7.07544ZM16.8808 12.0171C16.7116 12.0171 16.627 12.1875 16.5425 12.4432C16.2887 13.0396 15.9504 13.5508 15.6967 14.1472C15.6121 14.3176 15.4429 14.488 15.1046 14.488C14.5126 14.5732 13.9206 14.6584 13.2439 14.7436C13.0748 14.8288 12.8211 14.8288 12.7365 15.0844C12.7365 15.34 12.8211 15.5104 12.9902 15.6808C13.4977 16.1068 13.9206 16.618 14.428 17.0441C14.5972 17.1293 14.5972 17.2997 14.5972 17.4701C14.428 18.1517 14.3434 18.8333 14.1743 19.5149C14.1743 19.7705 14.1743 19.9409 14.3434 20.1113C14.5126 20.2817 14.7663 20.1965 14.9355 20.1113C15.5275 19.7705 16.1196 19.5149 16.7116 19.1741C16.8808 19.0889 16.9653 19.0889 17.1345 19.1741C17.7265 19.5149 18.3186 19.7705 18.826 20.1113C18.9952 20.1965 19.2489 20.3669 19.5027 20.1965C19.7564 20.0261 19.7564 19.7705 19.6718 19.5149C19.5872 18.9185 19.5027 18.2369 19.3335 17.6405C19.2489 17.3849 19.3335 17.2997 19.5027 17.1293C20.0101 16.7032 20.433 16.192 20.9405 15.766C21.1942 15.5104 21.2788 15.34 21.1942 15.0844C21.1096 14.8288 20.9405 14.7436 20.6867 14.7436C20.0101 14.6584 19.4181 14.5732 18.7415 14.488C18.4877 14.488 18.4031 14.4028 18.3186 14.1472C18.0648 13.5508 17.7265 12.9544 17.4728 12.358C17.3882 12.1875 17.2191 12.0171 16.8808 12.0171Z" fill="#F8F8F8"/>
<defs>
<linearGradient id="paint0_linear_2001_1036" x1="16.7537" y1="-11.2895" x2="20.9094" y2="32.1366" gradientUnits="userSpaceOnUse">
<stop offset="0.375" stop-color="#499CFB"/>
<stop offset="1" stop-color="#0D4F9A"/>
</linearGradient>
</defs>
</svg>
