<svg width="63" height="133" viewBox="0 0 63 133" fill="none" xmlns="http://www.w3.org/2000/svg">
<path d="M62.8314 130.987L57.4401 109.184C56.0923 103.985 56.0923 98.2821 57.4401 93.0829L61.989 74.8017C62.8314 71.615 62.6629 68.4284 61.6521 65.4095C60.4727 61.8874 58.2825 56.6882 54.4075 52.4952C51.8803 49.8118 48.8477 49.4763 47.1629 49.644C46.1521 47.6314 43.2879 43.2708 37.8966 42.5999C37.0542 41.4259 35.201 39.2456 32.5053 38.407C31.1575 38.0715 29.6412 38.0715 28.2934 38.5747C26.9455 32.2014 25.4292 23.6478 23.4075 12.5785C22.9021 9.39184 19.8695 7.21151 16.8368 7.54694C15.1521 7.71466 13.6358 8.38553 12.6249 9.72727C11.614 11.069 11.1086 12.5785 11.2771 14.2556C12.1195 20.7966 13.8042 35.3881 14.9836 45.7865C9.59229 46.9606 6.72816 56.0173 5.04337 61.3843C4.87489 61.7197 4.87489 62.0551 4.70642 62.3906L1.50533 72.6213C0.662937 75.4725 0.662937 78.4915 1.50533 81.1749C5.21185 92.9152 11.7825 101.469 15.489 105.326C16.6684 106.668 17.5108 108.177 18.0162 110.022L23.576 131.49C23.7445 132.161 24.4184 132.664 25.0923 132.664C25.2608 132.664 25.4292 132.664 25.4292 132.664C26.2716 132.496 26.7771 131.658 26.6086 130.652L21.2173 109.519C20.7119 107.339 19.5325 105.159 18.0162 103.481C14.6466 99.6239 8.41294 91.7411 4.70642 80.5041C4.0325 78.3237 4.0325 75.9757 4.70642 73.7954L7.9075 63.5646C8.07598 63.2292 8.07598 62.8937 8.24446 62.5583C9.42381 58.5331 12.1195 50.3149 15.489 49.1409C15.6575 49.9795 15.6575 50.6503 15.826 51.3212C17.3423 63.7323 12.7934 69.7701 12.6249 69.9379C12.1195 70.6087 12.2879 71.615 12.9619 72.1182C13.2988 72.2859 13.6358 72.4536 13.9727 72.4536C14.4782 72.4536 14.9836 72.2859 15.1521 71.7828C15.3205 71.4473 20.7118 64.5709 19.0271 50.8181C17.8477 40.755 15.489 21.6352 14.6466 13.9202C14.4782 13.0816 14.6466 12.4108 15.1521 11.7399C15.6575 11.069 16.3314 10.7336 17.1738 10.7336C18.6901 10.5659 20.0379 11.5722 20.3749 13.0816C23.4075 30.8597 27.6195 52.663 29.6412 55.5142C30.1466 56.185 31.1575 56.3527 31.8314 55.8496C32.5053 55.3464 32.6738 54.3401 32.1684 53.6693C31.6629 52.9984 30.4836 49.3086 28.9673 41.5936C29.9782 41.2582 30.8205 41.0905 31.6629 41.4259C34.0216 42.0968 35.5379 44.6125 35.5379 44.7802L38.2336 50.1472C38.5705 50.6503 39.076 50.9858 39.5814 50.9858C39.7499 50.9858 40.0868 50.9858 40.2553 50.8181C41.0977 50.4826 41.4347 49.4763 40.9292 48.6377L39.7499 46.2897C42.4455 47.6314 43.7934 50.1472 44.2988 51.1535L44.6358 51.9921L44.8042 52.3275L46.826 57.0236C47.1629 57.6945 47.6684 58.0299 48.3423 58.0299C48.5108 58.0299 48.6792 58.0299 49.0162 57.8622C49.8586 57.5268 50.1955 56.5205 49.8586 55.8496L48.5108 52.663C49.5216 52.8307 50.8695 53.1661 52.0488 54.5079C55.5868 58.1976 57.6086 62.8937 58.6195 66.0804C59.4619 68.5961 59.4618 71.2796 58.7879 73.7954L54.4075 92.2443C53.0597 97.9467 53.0597 104.152 54.4075 109.855L59.7988 131.658C59.9673 132.329 60.6412 132.832 61.3151 132.832C61.4836 132.832 61.6521 132.832 61.6521 132.832C62.4945 132.664 63.1684 131.826 62.8314 130.987Z" fill="white"/>
<path d="M11.7826 17.6101C11.6141 16.2683 11.4456 15.262 11.4456 14.2557C11.1086 12.5786 11.6141 11.0691 12.6249 9.72736C13.6358 8.38562 15.1521 7.71475 16.8369 7.54703C20.038 7.21159 22.9021 9.39192 23.4076 12.5786C23.576 13.7526 23.7445 14.7589 23.913 15.9329C25.4293 14.2557 26.2717 12.0754 26.2717 9.72736C26.2717 4.52811 22.0597 0.167459 16.6684 0.167459C11.4456 -0.000258967 7.23364 4.19268 7.23364 9.55964C7.23364 12.914 9.0869 15.9329 11.7826 17.6101Z" fill="#1DB779"/>
</svg>
