<svg width="30" height="31" viewBox="0 0 30 31" fill="none" xmlns="http://www.w3.org/2000/svg">
<path d="M28.75 3C28.75 3.69036 28.1904 4.25 27.5 4.25C26.8096 4.25 26.25 3.69036 26.25 3C26.25 2.30964 26.8096 1.75 27.5 1.75C28.1904 1.75 28.75 2.30964 28.75 3Z" fill="#F8F8F8"/>
<path d="M15.7545 15.6366L18.1084 15.0658C18.9639 14.8583 18.9639 13.6417 18.1084 13.4342L15.7545 12.8634C15.4491 12.7894 15.2106 12.5509 15.1366 12.2455L14.5658 9.8916C14.3713 9.0896 13.2898 9.03947 12.9845 9.74123C12.9641 9.78801 12.9472 9.83814 12.9342 9.8916L12.3634 12.2455C12.294 12.5318 12.0801 12.7593 11.8019 12.8477C11.7834 12.8535 11.7646 12.8588 11.7455 12.8634L9.3916 13.4342C8.5896 13.6287 8.53947 14.7102 9.24123 15.0155C9.28801 15.0359 9.33814 15.0528 9.3916 15.0658L11.7455 15.6366C12.0127 15.7014 12.2287 15.892 12.3282 16.1433C12.3424 16.1792 12.3542 16.2163 12.3634 16.2545L12.9342 18.6084C13.1417 19.4639 14.3583 19.4639 14.5658 18.6084L15.1366 16.2545C15.2106 15.9491 15.4491 15.7106 15.7545 15.6366Z" fill="#F8F8F8"/>
<path fill-rule="evenodd" clip-rule="evenodd" d="M13.75 3C7.5368 3 2.5 8.0368 2.5 14.25C2.5 20.4632 7.5368 25.5 13.75 25.5C16.4063 25.5 18.8475 24.5794 20.7721 23.0399L26.6161 28.8839C27.1043 29.372 27.8957 29.372 28.3839 28.8839C28.872 28.3957 28.872 27.6043 28.3839 27.1161L22.5399 21.2721C24.0794 19.3475 25 16.9063 25 14.25C25 8.0368 19.9632 3 13.75 3ZM4.75 14.25C4.75 19.2206 8.77944 23.25 13.75 23.25C18.7206 23.25 22.75 19.2206 22.75 14.25C22.75 9.27944 18.7206 5.25 13.75 5.25C8.77944 5.25 4.75 9.27944 4.75 14.25Z" fill="#F8F8F8"/>
<path d="M2.5 29.25C3.19036 29.25 3.75 28.6904 3.75 28C3.75 27.3096 3.19036 26.75 2.5 26.75C1.80964 26.75 1.25 27.3096 1.25 28C1.25 28.6904 1.80964 29.25 2.5 29.25Z" fill="#F8F8F8"/>
</svg>
